<?xml version="1.0" encoding="utf-8"?>
<!-- Generator: Adobe Illustrator 24.1.2, SVG Export Plug-In . SVG Version: 6.00 Build 0)  -->
<svg version="1.1" xmlns="http://www.w3.org/2000/svg" xmlns:xlink="http://www.w3.org/1999/xlink" x="0px" y="0px"
	 viewBox="0 0 986.26 932.35" style="enable-background:new 0 0 986.26 932.35;" xml:space="preserve">
<style type="text/css">
	.st0{fill:#CEAA66;}
	.st1{fill:#B1790C;}
	.st2{fill:#FEA700;}
	.st3{fill:#B1780C;}
	.st4{fill:#B1790D;}
	.st5{fill:#B27A0F;}
	.st6{fill:#5B0000;}
	.st7{fill:#C18823;}
	.st8{fill:#C49A49;}
	.st9{fill:#C29641;}
	.st10{fill:#CAA45B;}
	.st11{fill:#E08F0E;}
</style>
<g id="Camada_1">
</g>
<g id="Camada_2">
</g>
<g id="Camada_4">
</g>
<g id="Camada_3">
	<g>
		<path class="st0" d="M586.26,260.7l3.52-20.35l12.13-3.91l3.91-9l22.3-19.57v-33.65l-5.09-30.13l-16.83-26.61l-33.26-22.3
			l-19.57-8.61L531.87,85l-31.3-3.52L449.3,85l-23.48,2.74l-26.22,11.35l-25.04,18l-18.78,31.3l-4.3,27.39l-0.78,26.61l10.96,15.65
			l18.78,11.35l-1.17,6.26l8.22,3.52c0,0,5.09,17.61,6.65,17.22C395.7,256,586.26,260.7,586.26,260.7z"/>
		<g>
			<g>
				<g>
					<path class="st1" d="M830.38,706.01c-1.4-18.23-4.17-36.41,0.15-54.6c0.23-0.97,0.75-2.04-0.26-2.73
						c-1.26-0.86-2.09,0.38-3.06,0.93c-13.41,7.73-27.37,14.4-41.25,21.24c-3.11,1.53-3.7,0.65-3.24-2.46
						c0.39-2.64,0.25-5.37-1.24-7.75c-1.51-2.41-2.73-5.04-6.53-2.5c-2.42,1.62-5.15,0.38-7.35-1.43
						c-5.06-4.16-6.35-9.32-3.36-15.64c2.56-5.41,5.57-10.61,8.44-15.87c5.61-10.28,7.74-21.28,5.92-32.8
						c-0.74-4.69,0.02-4.81,4.31-3.67c6.41,1.7,13.26,2.82,19.08-1.98c6.86-5.66,7.44-16.17,1.65-23.94
						c-1.76-2.37-3.12-3.09-5.33-0.32c-3.38,4.23-8.1,4.99-13.13,3.87c-4.56-1.01-8.72-3.06-12.94-5.07
						c-17.37-8.27-27.93-25.8-46.96-33.6c3.73-1.02,6.38-1.95,9.11-2.45c10.29-1.87,19.92-0.95,27.78,6.98
						c3.31,3.33,4.02,7.25,2.41,11.47c-2.23,5.84-2.35,5.79,3.7,7.15c0.81,0.18,1.6,0.52,2.41,0.62c8.15,0.97,16.19,0.98,22.16-5.84
						c11.98-13.67,6.29-33.8-11.08-38.71c-4.07-1.15-3.67-2.74-3.08-5.99c1.36-7.46,6.4-13.47,6.28-21.85
						c-0.14-9.78,4.45-19.31,4.69-29.4c0.14-5.63,1.33-11.23,0.58-16.91c-0.14-1.08-0.68-2.57,0.67-3.13
						c1.5-0.63,1.8,1.01,2.44,1.88c14.13,18.86,25.73,39.18,34.76,60.95c0.44,1.07,0.62,2.45,2.19,2.22
						c2.06-0.3,1.39-2.07,1.27-3.19c-0.52-4.96-1.16-9.9-1.87-14.84c-3.06-21.42-7.48-42.53-13.69-63.29
						c-7.81-26.11-18.59-50.87-32.08-74.5c-1.55-2.71-2.71-3.01-5.17-0.72c-8.25,7.68-15.03,16.44-20.56,26.23
						c-3.01,5.33-6.11,5.78-10.63,1.67c-2.61-2.37-4.7-5.17-6.55-8.16c-6.39-10.32-11.96-21.15-18.97-31.08
						c-1.28-1.81-1.4-3.78-1.11-5.72c1.61-10.78,0.55-21.58,0.66-32.38c0.03-3.15-1.38-4.11-3.95-4.51c-4.26-0.67-8.55-1.24-12.79-2
						c-14.87-2.66-29.76-5.24-44.58-8.12c-13.43-2.62-26.82-5.5-40.18-8.46c-6-1.33-6.89-4.58-2.71-8.77
						c14.36-14.38,28.74-28.75,43.11-43.12c7.8-7.8,7.8-7.8,16.52-0.69c0.52,0.42,1.07,0.8,1.58,1.21
						c22.38,18.01,41.7,38.76,56.15,63.71c12.56,21.67,21.2,44.71,22.85,69.98c0.06,0.94-0.35,2.18,0.97,2.48
						c1.39,0.32,2.06-0.94,2.71-1.83c11.13-15.25,25.71-26.35,42.28-35.01c3-1.57,4.26-3.38,4.33-6.94
						c0.52-24.22-5.85-46.77-16.27-68.31c-15.6-32.22-37.9-59.33-64.11-83.43c-1.39-1.28-4.49-2.06-3.11-4.92
						c1.24-2.57,3.53-1.42,5.68-1.08c5.39,0.86,11.29-3.14,12.68-8.36c0.61-2.29,0.41-4.62,0.08-6.95c-0.16-1.12-0.39-2.52,1.1-2.94
						c1.52-0.43,1.98,0.86,2.38,1.96c1.08,2.94,3.31,4.89,5.56,6.91c2.71,2.43,3.94,1.48,4.71-1.56
						c4.97-19.46,15.78-35.76,27.74-51.45c0.96-1.26,2.92-2.29,2.24-4.44c-2.08-0.41-2.9,1.06-4.05,1.93
						c-14.99,11.47-30.64,21.73-48.87,27.47c-1.93,0.61-4.96-0.34-5.59,2.29c-0.68,2.83,2.21,4.21,3.87,5.94
						c1,1.05,2.45,1.68,3.72,2.46c0.99,0.61,3.11,0.18,2.52,2.26c-0.52,1.84-2.11,1.69-3.72,1.43c-9.18-1.51-15.32,3.91-14.48,13.12
						c0.26,2.85-0.57,4.63-2.48,6.53c-37.29,37.16-74.53,74.37-111.81,111.55c-1.12,1.12-2.14,3.37-3.8,2.72
						c-2.12-0.83-0.65-3.23-0.85-4.92c-0.22-1.81-0.07-3.66-0.02-5.49c0.06-2.25-0.88-3.08-3.21-3.41
						c-2.35-0.34-6.78,2.23-6.71-2.01c0.08-4.48,4.77-2.11,7.32-2.38c6.33-0.66,7.43-1.37,6.6-7.6c-0.43-3.22,0.13-4.98,3.45-5.83
						c1.54-0.39,3.2-1.38,4.2-2.59c2.85-3.46,6.27-5.57,10.67-6.64c3.35-0.82,6.07-3.39,6.75-6.8c1.02-5.14,4.48-9.18,5.63-14.24
						c0.8-3.53,3-6.18,6.86-7.2c2.98-0.79,3.1-2.65,1.11-4.8c-2.16-2.33-4.59-3.17-7.58-1.51c-1.59,0.88-3.21,1.86-4.94,2.28
						c-7.35,1.8-7.43,1.85-3.11,8.04c1.51,2.16,1.47,4.25,0.29,6.55c-1.19,2.31-3.14,2.73-5.42,2.72c-2.65-0.01-3.61-1.94-4.69-3.87
						c-0.95-1.69,1.29-4.52-1.41-5.24c-2.41-0.64-3.65,1.83-5.13,3.36c-0.34,0.35-0.75,0.68-1.19,0.89
						c-5.42,2.68-8.85,8.33-8.48,13.9c0.17,2.54,0.69,4.22,3.43,1.86c1.24-1.06,2.41-1.02,3.53,0.09c1.15,1.13,1.88,2.55,0.98,4.04
						c-1.47,2.44-3.18,4.73-6.34,5.14c-11.89,1.56-22.84-1.29-32.84-7.6c-3.3-2.08-5.61-5.4-4.01-9.81c1.5-4.12,4.41-6.95,8.91-6.71
						c4.56,0.25,7.68,2.89,8.53,7.66c0.23,1.28,0.05,2.87,1.8,3.12c1.27,0.18,2.31-0.68,2.8-1.75c1.05-2.28,2.9-2.67,5.14-3.21
						c5.28-1.27,6.88-7.61,2.89-11.38c-1.69-1.6-2.87-2.97-2.54-5.42c0.17-1.22-0.66-2.32-1.75-2.82c-1.35-0.62-1.98,0.46-2.74,1.44
						c-2.9,3.72-6.82,4.99-11.06,3.03c-3.77-1.74-5.71-5.15-4.99-9.45c0.74-4.46,3.45-7.07,8.05-7.46c1.03-0.09,2.09-0.05,2.41-1.26
						c0.32-1.23-0.02-2.47-1.2-3c-2.45-1.09-2.86-3.14-3.54-5.47c-1.61-5.48-7.92-6.8-11.84-2.55c-1.47,1.59-2.77,2.72-5.05,2.44
						c-1.21-0.15-2.39,0.24-2.64,1.69c-0.19,1.07,0.32,1.81,1.21,2.51c3.71,2.9,4.95,6.61,2.88,10.98
						c-1.73,3.66-4.76,5.65-8.85,5.17c-4.67-0.55-7.44-3.37-8.13-8.07c-0.15-1.02-0.2-2.08-1.39-2.37c-1.27-0.31-2.46,0.2-2.93,1.34
						c-0.94,2.29-2.59,2.93-4.93,3.43c-5.56,1.18-7.17,6.76-3.56,11.17c0.93,1.13,2.43,1.65,2.89,3.3c1.59,5.62,1.69,5.65,6.2,1.82
						c2.92-2.48,6.08-2.52,9.34-1.12c3.41,1.47,5.07,4.42,5.17,7.93c0.1,3.51-1.32,6.94-4.77,8.09c-5.16,1.72-10.57,2.73-15.92,3.86
						c-1.74,0.37-2.7-1.06-3.23-2.55c-0.34-0.94,0.22-1.62,1.13-1.85c4.33-1.08,8.62-2.42,13.01-3.06c2.6-0.38,4.6-0.85,5.08-3.68
						c0.39-2.3-0.82-3.89-2.83-4.75c-2.49-1.07-4.17,0.33-5.4,2.3c-1.37,2.2-2.88,4.62-5.79,3.66c-3.73-1.22-6.91-4.1-7.9-7.63
						c-0.56-2-0.34-4.28-2.37-5.18c-2.3-1.02-3.38,1.62-4.95,2.66c-1.04,0.69-1.63,2.04-2.44,3.07c-1.98,2.52-4.06,4.96-7.69,4.7
						c-1.28-0.09-2.43-0.1-2.77,1.34c-0.35,1.51,0.43,2.62,1.82,3.14c2.18,0.82,4.4,1.53,6.6,2.27c1.67,0.56,1.75,1.82,1.39,3.23
						c-0.39,1.54-1.5,1.39-2.76,1.22c-6.72-0.91-9.23-3.61-10.12-10.15c-0.36-2.62,0.31-7.45-5.25-4.56
						c-0.33,0.17-1.24,0.02-1.27-0.12c-0.61-2.53-2.01-5.33-1.4-7.56c0.57-2.05,3.75-2.59,6.1-2.03c3,0.72,5.49,2.44,6.86,5.33
						c0.56,1.18,0.6,2.77,2.47,2.51c1.57-0.22,2.19-1.41,2.36-2.83c0.24-1.94,1.67-2.61,3.16-3.49c5.5-3.29,5.62-8.86,0.31-12.38
						c-1.48-0.98-3.35-1.38-3.56-3.72c-0.12-1.33-1.02-2.54-2.55-2.71c-1.94-0.21-1.75,1.6-2.36,2.67
						c-2.07,3.64-5.01,5.87-9.39,5.09c-4.2-0.75-6.9-3.32-7.47-7.62c-0.55-4.19,0.95-7.5,4.94-9.43c1.15-0.56,2.82-0.77,2.8-2.44
						c-0.03-1.57-1.39-2.17-2.75-2.42c-2.05-0.38-2.9-1.86-3.88-3.5c-3.28-5.52-8.8-5.49-12.23-0.05c-0.77,1.22-0.93,2.87-2.78,3.26
						c-1.59,0.33-3.66,0.61-3.76,2.62c-0.11,2.1,2.21,2.13,3.56,2.96c3.57,2.18,5.21,6.91,3.79,10.9c-1.4,3.94-5.84,6.62-9.98,5.75
						c-3.27-0.69-5.66-2.68-6.98-5.82c-0.78-1.87-2.61-3.23-3.42-0.97c-1.31,3.64-4.34,4.99-6.76,7.27
						c-3.04,2.87-2.22,7.62,1.74,10.17c1.9,1.22,3.27,2.4,4.12,4.63c1.04,2.73,3.07,3.24,4.47,0.13c1.5-3.34,3.91-5.29,7.45-5.91
						c1.17-0.21,2.84-0.24,2.7,1.26c-0.25,2.75-0.68,5.64-1.81,8.11c-0.96,2.09-2.34-0.73-3.72-0.54c-0.89,0.13-1.52,0.42-2.12,1.06
						c-0.72,0.77-1.76,1.12-2.1,1.87c-1.09,2.45,1.5,6.76,1.7,7.88c-0.25,1.55-1.64,3.11-2.92,3.54c-2.66,0.89-5.38,1.6-8.09,2.33
						c-1.04,0.28-2.01,0.03-2.49-1.04c-0.55-1.22-0.22-2.65,0.82-3.07c2.55-1.03,10.09-3.12,7.98-8.26
						c-0.75-1.83-3.29-1.2-5.15-3.88c-1.45-2.08-3.1-3.83-4.99-5.49c-3.21-2.8-5.25-0.26-5.28,2.01c-0.07,5.36-3.77,7.59-7.38,9.44
						c-3.87,1.98-5.28-2.11-7.28-4.37c-1.35-1.52-3.02-2.18-4.89-1.05c-1.61,0.97-3.11,2.35-2.77,4.38
						c0.35,2.06,1.66,3.95,3.99,3.77c3.51-0.26,6.42,1.59,9.68,2.14c1.18,0.2,3.03,0.24,2.55,2.25c-0.44,1.85-1.71,2.76-3.76,2.24
						c-2.41-0.61-4.82-1.3-7.27-1.65c-5.28-0.76-9.04-3.61-9.61-7.94c-0.54-4.07,1.31-7.29,4.85-9.09c4.4-2.23,8.4-1.3,11.43,2.78
						c0.72,0.97,1.47,1.92,2.85,1.45c1.06-0.36,1.69-1.41,1.52-2.35c-0.5-2.89,1.22-4.39,2.96-6.28c3.72-4.03,1.65-9.83-3.84-11
						c-1.96-0.42-3.37-1.07-4.3-2.89c-0.6-1.18-1.54-2.32-3.13-1.97c-1.49,0.33-1.26,1.75-1.53,2.84c-1.06,4.26-3.44,7.29-8.05,7.66
						c-4.23,0.34-7.57-1.45-9.13-5.51c-1.61-4.17-0.76-7.89,3.14-10.51c1.07-0.72,1.85-1.46,1.39-2.83
						c-0.44-1.31-1.61-1.86-2.78-1.64c-2.54,0.47-3.81-0.99-5.39-2.6c-3.92-3.98-9.89-2.52-11.44,2.82
						c-0.62,2.14-0.89,4.12-3.24,5.13c-1.08,0.46-1.8,1.56-1.6,2.87c0.23,1.5,1.5,1.59,2.67,1.69c1.88,0.16,3.54,0.77,4.94,2.11
						c4.08,3.89,4.17,9.32,0.16,13.26c-3.64,3.58-9.11,3.32-12.86-0.67c-0.98-1.04-1.48-2.9-3.43-2.11c-1.5,0.6-1.63,2.13-1.36,3.43
						c0.48,2.32-1.2,3.13-2.5,4.4c-4.37,4.29-2.73,10.28,3.21,11.91c1.25,0.34,2.47,0.27,3.54,1.44c3.9,4.32,4.05,4.29,5.78-1.01
						c1.38-4.23,4.55-6.27,8.57-6.47c4.01-0.2,7.16,2.19,8.38,5.95c1.32,4.05,0.64,8.03-3.44,10.5c-10.1,6.1-20.91,9.2-32.84,7.76
						c-3.05-0.37-4.67-2.37-6.21-4.5c-1.07-1.48-0.92-3.15,0.43-4.56c1.29-1.35,2.62-1.22,3.97-0.12c1.13,0.92,2.23,1.7,3.11-0.27
						c1.56-3.5-2.99-13.97-6.74-15.05c-1.73-0.5-2.98-1.32-4.02-2.69c-0.92-1.21-1.96-2.44-3.68-2.14
						c-2.17,0.38-1.39,2.27-1.65,3.63c-0.49,2.51-1.07,4.94-4.25,5.39c-2.56,0.36-4.67-0.28-5.94-2.63c-1.56-2.88-1.05-5.5,1.4-7.63
						c2.02-1.76,3.59-3.93,0.46-5.48c-4.1-2.03-8.54-3.57-13-4.6c-2.38-0.55-4.34,1.66-5.18,3.94c-0.97,2.63,1.45,2.85,3.06,3.52
						c2.97,1.23,5.1,3.47,5.8,6.47c1.17,5.01,4.57,9.08,5.47,14.24c0.48,2.79,2.48,5.69,5.16,6.38c5.85,1.52,10.19,5.02,14.48,8.87
						c0.6,0.54,1.41,1,2.19,1.18c3.48,0.79,4.18,2.59,3.48,6.14c-1.08,5.43,0.66,7.02,6.42,7.25c0.82,0.03,1.67-0.03,2.46,0.16
						c1.29,0.32,1.87,1.35,1.9,2.61c0.04,1.6-1.11,2-2.36,1.81c-4.85-0.72-4.37,2.48-4.46,5.61c-0.07,2.53,1.44,6.22-1.08,7.31
						c-2.69,1.17-4.13-2.63-5.88-4.38c-36.13-35.96-72.17-72.02-108.26-108.02c-2.53-2.52-4.57-4.8-3.79-8.93
						c0.96-5.04-1.82-8.74-6.13-10.95c-2.43-1.25-5.18-2.22-8.14-0.92c-1.45,0.63-3.2,0.34-3.74-1.42c-0.64-2.1,1.48-1.76,2.52-2.2
						c3.05-1.29,5.17-3.63,7.05-6.18c1.38-1.87,1.14-3.28-1.55-3.86c-14.43-3.09-26.87-10.46-38.95-18.49
						c-5.77-3.84-11.32-8-17.6-12.46c-0.11,3.58,1.96,4.79,3.18,6.44c11.55,15.55,22.35,31.51,26.86,50.77
						c0.73,3.13,2.24,2.92,4.21,1.43c2.67-2.02,5.21-4.19,6.25-7.57c0.3-0.98,0.64-2.04,1.98-1.62c1.06,0.33,1.56,1.25,1.48,2.34
						c-0.06,0.82-0.34,1.62-0.46,2.44c-1.16,7.91,5.94,14.93,13.79,13.32c2.23-0.46,4-0.76,5.04,1.44c1.01,2.12-1.15,2.81-2.28,3.85
						c-17.91,16.33-34.04,34.21-47.67,54.29c-19.2,28.3-32.56,58.71-33.77,93.53c-0.2,5.77,0.5,10.06,6.78,13.14
						c15.73,7.73,28.72,19.15,39.67,32.85c0.75,0.94,0.87,2.94,2.66,2.44c1.7-0.48,1.01-2.22,1.14-3.46
						c1.78-16.99,6.09-33.3,12.92-48.96c15.93-36.54,41.82-64.87,72.89-89.03c3.08-2.39,4.8-1.9,7.36,0.71
						c11.77,12.02,23.75,23.84,35.66,35.72c4.13,4.12,8.29,8.21,12.36,12.37c0.91,0.93,3.1,2.72,1.02,3.38
						c-3.42,1.09-5.57,3.9-9.04,4.96c-15.41,4.72-31.3,6.97-47.07,9.83c-16.17,2.93-32.38,5.62-48.59,8.37
						c-2.66,0.45-4.1,1.06-4.41,4.53c-1.1,12.33-0.19,24.63-0.05,36.93c0.04,3.09-0.42,5.75-2.14,8.47
						c-4.51,7.18-8.6,14.62-12.98,21.89c-2.32,3.85-4.8,7.6-8.3,10.54c-4.3,3.61-7.27,3.17-9.96-1.85
						c-5.08-9.49-11.64-17.79-19.37-25.24c-4.15-4-4.42-3.98-7.42,1.21c-24.15,41.79-37.76,87.07-44.66,134.58
						c-0.79,5.43-1.52,10.87-2.14,16.31c-0.15,1.34-0.94,3.43,0.79,3.89c1.82,0.48,1.81-1.96,2.71-3.02
						c0.2-0.24,0.25-0.61,0.38-0.92c7.83-18.44,17.42-35.92,28.92-52.31c2.41-3.44,4.57-7.18,7.94-10c1.5,1.49,0.88,3.05,0.76,4.44
						c-0.68,7.28-0.59,14.88,0.57,21.73c1.31,7.68,2.49,15.68,5.03,23.23c0.42,1.25,1.35,2.83,0.4,3.8
						c-2.36,2.4-0.69,4.48,0.42,6.26c2.33,3.75,3.39,7.9,4.87,11.95c1.45,3.96,0.69,5.23-3.45,6.51
						c-13.33,4.13-18.17,13.08-15.68,27.48c2.05,11.85,9.87,17.68,23.44,17.23c2.95-0.1,5.88-0.96,8.83-1.43
						c3.37-0.54,4.18-1.84,2.2-5.02c-2.92-4.7-2.25-9.02,1.45-13.18c7.75-8.7,24.34-10.57,36.73-3.6
						c-9.3,1.88-15.15,8.14-21.52,13.62c-2.02,1.74-3.9,3.63-5.94,5.35c-9.07,7.64-18.56,14.63-30.08,18.21
						c-5.97,1.85-11.52,1.6-15.89-3.7c-0.97-1.18-2-2.23-3.72-0.75c-4.19,3.59-6.23,12.47-4.13,18.62c2.18,6.38,7.02,9.81,14,9.9
						c3.83,0.05,7.62,0.14,11.28-1.5c2.45-1.1,3.75-0.54,2.99,2.7c-2.53,10.84-0.47,21.15,4.32,30.98
						c3.28,6.73,6.94,13.26,10.23,19.98c2.39,4.89,1.36,9.35-2.41,13.25c-2.44,2.53-5.23,4.77-8.75,2.92
						c-4.55-2.39-5.58,0.91-6.91,3.69c-1.59,3.33-0.65,6.99-0.52,10.96c-15.59-7.63-30.88-14.56-45.34-23.14
						c-1.09-0.65-2.03-1.97-3.51-0.99c-0.82,0.54-0.54,1.44-0.34,2.27c4.59,18.35,2.06,36.73,0.12,55.08
						c-1.61,15.22-4.36,30.37-5.09,45.62c-0.98,20.53-3.69,17.9,13.69,28.67c50.83,31.52,104.68,57.28,158.95,82.18
						c28.42,13.04,57.2,25.26,86.63,35.86c21.61,7.78,43.35,15.32,66.23,18.38c26.76,3.59,52.76-0.77,78.22-8.98
						c27.54-8.87,54.5-19.32,81.08-30.73c54.12-23.22,107.06-48.91,158.72-77.18c13.87-7.59,27.62-15.39,40.62-24.43
						c4.44-3.09,6.57-6.63,6.57-12.38C836.16,743.83,831.85,725.08,830.38,706.01z M709.02,467.11c1.89-7.71,2.65-19.07,5.22-26.63
						c1.04-0.42,5.4,0.9,7.17,1.33c9.16,2.26,17.24-4.19,16.64-13.16c-0.34-4.97-2.17-6.25-7.07-4.93c-3.26,0.88-7.2-2.4-7.3-6.34
						c-0.07-2.82,0.35-5.63,1.27-8.34c2.74-8.07,3.55-16.21,0.41-24.35c-0.81-2.11-0.74-3.11,1.88-3.01
						c1.64,0.06,3.62,0.25,4.88-0.53c5.23-3.24,6.64,0.29,8.52,4.08c10.31,20.75,18.29,42.35,24.11,64.75
						c0.4,1.54,1.36,3.49-0.97,4.23c-9.96,3.15-18.64,8.41-26.18,16.35c-0.41-1.29-0.64-1.71-0.65-2.14
						c-0.05-2.42,2.28-5.38,0.17-7.08c-2.52-2.03-5.31,0.72-7.81,1.66c-4.71,1.76-8.48,5.14-12.33,8.32
						c-1.25,1.04-2.1,4.07-4.14,2.34C710.98,472.11,708.31,469.98,709.02,467.11z M259.66,376.53c2.52,7.56,1.57,14.53,1.86,21.39
						c0.06,1.49-0.66,2.28-1.75,3.25c-1.84,1.63-3.77,3.75,1.2,3.33c2.18-0.19,1.55,1.83,1.53,2.94
						c-0.18,9.78,1.42,19.39,2.68,29.02c0,0-4.88-0.32-6.41,0.01c-7.52,1.64-11.2-0.48-13.41-7.65c5.13,1.66,9.91,1.61,12.4-3.75
						c1.47-3.16,2.04-7.27,0.47-10.2c-3.91-7.31-2.71-15.24-3.61-22.85C253.98,386.72,257.14,381.96,259.66,376.53z M249.04,461.45
						c-4.53-1.61-5.32-0.98-4.68,3.78c0.19,1.43,1.31,2.78,0.44,4.37c-2.41,0.12-3.22-2.09-4.67-3.31
						c-5.53-4.64-11.55-8.47-18.46-10.62c-3.82-1.19-5.2-2.75-4.01-7.15c5.94-22.05,13.63-43.4,24.08-63.72
						c1.41-2.73,8.84-4.65,11.4-2.95c1.28,0.85,0.39,1.67,0.05,2.53c-3.52,8.66-2.13,17.22,0.41,25.81
						c0.97,3.27,2.7,6.77,0.36,10.05c-1.6,2.24-3.5,4.47-7,3.24c-3.9-1.37-6.05,0.12-6.67,4.36c-1.31,8.92,6.94,16.05,16.36,14.11
						c1.13-0.23,2.89-0.46,3.99-0.48c1.02-0.02,5.02-0.98,5.02-0.98c0.04,0.38,0.09,0.75,0.13,1.13c0.98,8.82,1.8,17.75,4.36,26.35
						c0.32,1.09,0.42,2.31,0.33,3.45c-0.09,1.17-0.64,2.35-1.81,2.81c-1.25,0.5-1.63-0.82-2.26-1.48
						C261.51,467.63,255.74,463.84,249.04,461.45z M758.37,626.67c-1.81,2.84-4.52,4.8-7.24,6.76
						c-8.44,6.06-16.12,12.82-20.08,22.84c-3.57,9.06,0.26,21.5,8.26,26.65c0.65,0.42,2.04,0.93,2.19,0.73
						c5.28-7.01,7.01,2.33,10.96,2.78c-9.14,4.1-18.26,8.24-27.42,12.29c-39.84,17.61-80,34.45-120.7,49.95
						c-29.82,11.35-59.81,22.19-90.72,30.32c-16.37,4.31-32.27,3.51-48.63-0.87c-23.01-6.16-45.51-13.76-67.85-21.82
						c-25.79-9.3-51.23-19.56-76.55-30.07c-29.79-12.36-59.43-25.05-88.76-38.46c-0.75-0.34-1.47-0.75-2.64-1.34
						c2.38-1.81,4.58-3.37,6.65-5.08c1.23-1.01,2.21-0.79,2.86,0.43c1.88,3.47,3.51,1.68,5.35-0.05
						c10.7-10.12,11.29-22.5,1.79-34.76c-1.84-2.37-4.79-3.88-5.57-7.06c-0.05-0.03-0.09-0.06-0.14-0.09l0.08-0.09
						c0.01,0.06,0.04,0.12,0.06,0.18c11.08,7.46,23.81,10.07,36.6,12.79c9.17,1.95,12.68,7.83,10.7,17.05
						c-0.78,3.64,0.61,4.01,3.46,3.97c16.16-0.25,25.33-11.25,23.92-28.76c-0.38-4.73,1.21-6.29,6.07-5.85
						c7.82,0.71,11.87,5.97,14.83,12.46c0.52,1.15,0.17,2.9,1.91,3.12c1.66,0.22,2.15-1.31,2.75-2.46c1.51-2.93,2.98-5.89,4.56-9.03
						c2.47,1.97,3.25,4.37,3.1,7.65c-0.5,11.05,3.2,15.02,14.27,16.9c4.77,0.81,5.39,6.27,8.71,8.53c-0.6,1.99-1.68,1.17-2.57,1.13
						c-1.3-0.06-2.39,0.23-2.21,1.88c0.18,1.62,1.2,2.23,2.75,2.25c8.04,0.07,8.04,0.08,4.86,7.79c-0.37,0.91-0.92,1.82-0.03,3.05
						c2.42-0.47,2.84-2.81,3.96-4.46c0.65-0.96,0.69-3.1,2.61-1.44c1.23,1.05,2.7,2.29,0.86,4.11c-1.54,1.53-3.15,2.94-5.17,3.86
						c-0.76,0.34-1.45,0.97-1.12,1.95c0.39,1.16,1.35,0.68,2.1,0.5c0.97-0.23,1.91-0.56,2.84-0.92c2.22-0.85,4.32-3.95,6.42-2.63
						c3.45,2.16,6.25,5.42,9.15,8.38c1.33,1.36,0.52,2.46-1.18,2.76c-6.83,1.22-7.3,8.09-10.59,12.34c-1.7,2.21,1.16,2.56,3.1,2.26
						c9.36-1.43,18.09,0.78,26.71,4.25c2.65,1.07,3.09,1.99,1.56,4.24c-1.06,1.56-1.77,3.31-0.42,5.09
						c1.86,2.45,3.14-0.25,4.68-0.59c5.12-1.13,10.08-1.96,14.47,2.25c11.36,10.89,24.82,18.95,38.24,26.82
						c6.27,3.68,10.37,8.97,15.17,13.84c1.5,1.53,2.16,2.06,3.75,0.1c2.4-2.96,5.38-5.44,7.26-8.84c2.42-4.39,7.5-4.65,11.25-6.94
						c12.6-7.72,25.24-15.44,36.47-25.04c4.73-4.05,9.03-3.03,13.84-1.66c1.18,0.34,2.19,1.9,3.51,0.47
						c1.28-1.4,1.46-3.38,0.37-4.63c-3.31-3.79-0.52-4.42,2.35-5.56c8.15-3.22,16.46-5.23,25.28-3.82c2.37,0.38,5.08-0.29,3.03-2.67
						c-3.81-4.41-3.81-12.56-12.71-12.08c2.89-4.88,6.92-7.15,9.83-10.48c1.46-1.67,2.67-0.11,3.92,0.52
						c2.44,1.24,4.68,3.2,7.85,2.34c-5.56-9.02-5.56-9.02-3.82-10.49c1.91,2.11,2.09,5.58,5.21,6.88c1.45-3.07-1.52-4.95-1.85-7.51
						c-0.22-1.68-0.82-3.06,0.56-4.56c1.51-1.64,2.68-0.37,3.99,0.12c1.45,0.54,2.95,0.88,4.17-0.42c0.63-0.67,0.39-1.52,0.05-2.34
						c-0.9-2.15-2.72,0.12-4.39-1.23c3.79-3.97,5.48-9.67,12.73-9.92c5.71-0.19,10-6.37,10.33-12.89c0.36-7.19,0.73-8.02,6.03-13.35
						c1.56,3.51,2.91,6.96,4.63,10.21c0.7,1.32,1.15,3.56,3.17,3.37c1.73-0.16,1.74-2.22,2.34-3.53
						c3.81-8.31,8.91-11.91,16.25-11.61c3.57,0.14,5.17,0.86,4.64,5.33c-2.06,17.27,6.66,27.88,22.99,28.88
						c3.44,0.21,5.23,0.03,4.01-4.56c-2.17-8.2,2.32-14.48,10.96-16.5c7.76-1.81,15.63-3.01,23.17-5.84
						c8.76-3.28,15.59-8.63,20.55-16.52c1.58-2.52,3.4-4.94,5.37-7.17c1.24-1.4,3.01-3.49,5-1.69
						C761.33,623.13,759.37,625.1,758.37,626.67z"/>
				</g>
				<path class="st2" d="M267.79,436.44c-0.56-12.75-4.17-17.73-4.21-30.52c0-1.35-0.34-2.32-2.74-2.31
					c-2.11,0.01-2.47-0.93-1.46-1.84c6.41-5.76,2.64-12.45,2.44-18.63c-0.08-2.32-1.19-5.15-2.15-7.49
					c-2.89,5.64-5.85,11.13-5.59,17.88c0.02,13.08,2.2,16.78,4.13,24.57c1.22,4.94-1.03,12.03-14.23,10.03
					c0.06,6.03,4.77,9.88,15.25,8.52C263.09,436.34,265.2,436.71,267.79,436.44z"/>
				<path class="st1" d="M8.21,732.74c4.52-8.5,9.77-16.61,13.17-25.71c2.22-5.94,2.36-11.62-0.53-17.37
					c-1.41-2.82-2.5-5.81-3.66-8.74c-3.34-8.48-2.53-16.54,2.24-24.33c9.59-15.7,8.07-31.68,0.99-47.76
					c-0.5-1.14-2.18-2.23-1.1-3.52c1.3-1.55,2.77,0.13,4.07,0.53c24.4,7.6,49.17,10.97,74.81,8.44
					c18.75-1.86,36.41-7.42,54.15-13.09c6.98-2.23,14.21-3.52,21.59-3.47c2.21,0.02,5.02-0.76,6.19,2.01
					c1.29,3.05-1.51,4.55-3.2,6.13c-7.31,6.79-16.5,10.45-25.27,14.8c-4.01,1.99-8.26,3.59-11.69,6.58
					c-4.37,3.79-4.51,6.18-1.65,11.17c5.71,9.96,5.99,21.05,5.47,32.01c-0.93,19.94-2.48,39.85-3.83,59.77
					c-0.56,8.23-0.74,8-8.82,9.91c-21.48,5.08-43.15,8.24-65.28,7.28c-19.93-0.86-39.31-4.39-57.64-12.64
					C8.21,734.08,8.21,733.41,8.21,732.74z"/>
				<path class="st1" d="M972.89,734.74c-22.13,10.02-45.56,13.27-69.58,12.86c-19.04-0.33-37.72-3.6-56.21-7.99
					c-3.17-0.75-5.07-1.77-5.43-5.71c-1.76-19.05-2.55-38.16-3.96-57.23c-0.81-11.02-0.82-21.91,2.46-32.59
					c0.64-2.09,1.37-4.11,2.74-5.84c3.19-4.01,1.93-7.46-1.44-10.49c-4.78-4.3-10.8-6.44-16.49-9.15
					c-7.52-3.58-15.01-7.19-21.11-13.02c-1.61-1.54-4.01-3-2.86-5.8c1.06-2.6,3.63-1.92,5.7-1.95c12.38-0.17,23.82,3.96,35.38,7.71
					c24.63,7.99,49.72,11.7,75.72,8.73c14.12-1.61,27.84-4.55,41.33-8.86c0.92-0.29,1.86-1.15,2.67-0.11
					c0.77,0.98-0.18,1.79-0.6,2.67c-8,16.83-9.15,33.56,1.05,49.97c5.68,9.13,4.62,18.52-0.12,27.08
					c-6.48,11.71-3.72,22.03,2.28,32.5c2.89,5.03,5.65,10.14,8.47,15.21C972.89,733.41,972.89,734.08,972.89,734.74z"/>
				<path class="st1" d="M500.05,12c1.06,3.96-1.66,6.93-2.74,10.32c-0.56,1.74-1.64,3.55,0.01,5.11c1.47,1.38,3.05,0.35,4.62-0.28
					c10.05-4.06,10.05-4.04,10.01,6.82c-0.04,10.05-0.04,10.07-9.34,6.05c-1.81-0.78-3.61-2.22-5.43-0.29
					c-1.6,1.69-0.36,3.45,0.3,5.1c1.65,4.17,3.79,7.89,6.84,11.4c5.45,6.27,7.48,13.99,6.03,22.34c-0.44,2.55-1.08,4.72,1.97,6.33
					c2.16,1.13,2.09,3.64,1.78,5.84c-0.75,5.21-1.58,10.42-1.73,15.88c2.12-3.61,4.22-7.23,6.38-10.82
					c0.56-0.92,0.82-2.47,2.34-2.11c1.4,0.33,1.23,1.86,1.49,2.92c1.42,5.68,1.44,11.54,1.98,17.32c0.15,1.61-0.64,2.88-1.99,3.79
					c-9.99,6.71-14.54,16.95-18.01,27.85c-1.83,5.75-1.7,5.79-5.98,2.06c-4.72-4.12-11.33-4.1-15.71,0.61
					c-3.26,3.5-3.89,1.92-4.92-1.5c-3.45-11.48-8.42-22.07-18.69-29.21c-2.09-1.45-2.35-3.5-2.05-5.74
					c0.69-5.1,1.41-10.19,2.17-15.28c0.14-0.93-0.01-2.2,1.12-2.56c1.35-0.42,2.14,0.59,2.74,1.64c2.36,4.16,4.7,8.34,7.63,12.4
					c-0.91-5-1.85-10-2.72-15.01c-0.6-3.52-1.11-6.99,2.99-9.07c1.73-0.88,0.87-2.6,0.69-4.04c-1.27-10.1,0.57-19.17,8.4-26.43
					c3.17-2.94,3.77-7.34,5.17-11.16c0.97-2.64-1.35-3.93-3.93-3.1c-2.67,0.86-5.22,2.13-7.8,3.26c-2.75,1.21-4.04,0.52-3.95-2.66
					c0.12-4.16,0.15-8.33-0.02-12.48c-0.15-3.73,1.66-3.8,4.34-2.69c2.3,0.96,4.63,1.87,6.89,2.9c1.3,0.59,2.5,0.98,3.66-0.16
					c1.25-1.22,1.06-2.47,0.5-4.07c-1.27-3.68-4.11-6.97-3.06-11.28C488.05,12,494.05,12,500.05,12z"/>
				<path class="st3" d="M421.84,112.42c-0.25-6.51,0.68-14.26,1.81-22.01c0.36-2.49,1.16-4.03,3.7-4.53
					c7.36-1.46,14.82-1.92,22.3-2.11c2.85-0.07,2.56,1.49,2.02,3.64c-5.59,22.17-5.71,44.42-0.59,66.68
					c1.3,5.65,2.83,11.31,4.98,16.67c1.32,3.28-0.57,4.72-2.18,6.36c-2,2.03-3-0.81-4.51-1.3c-5.21-1.69-8.34-7.17-14.32-7.51
					c-2.04-0.11-2.55-2.34-3.28-4.04C424.87,148.13,421.55,131.3,421.84,112.42z"/>
				<path class="st3" d="M537.6,83.64c5.42,0.71,10.84,1.48,16.27,2.1c3.07,0.35,4.28,2.25,4.65,4.97
					c3.53,25.5,1.97,50.41-8.49,74.31c-0.92,2.09-2.02,3.51-4.69,3.71c-5.27,0.39-7.85,5.9-12.76,7.21
					c-1.53,0.41-2.53,3.34-4.55,1.18c-1.53-1.63-3.02-3.25-2.01-6.12c3.25-9.27,5.66-18.77,7.1-28.51
					c2.64-17.83,1.73-35.51-2.15-53.05c-1.34-6.07-1.53-6.03,4.59-5.59c0.66,0.05,1.33,0.07,2,0.1
					C537.58,83.84,537.59,83.74,537.6,83.64z"/>
				<path class="st4" d="M631.66,173.95c-0.39,1.28-0.46,2.72-0.05,4.23c0.32,1.18-0.1,3.06-0.96,3.09
					c-6.87,0.26-8.86,8.88-15.81,9.01c-1.32,0.02-2.72,1.19-3.89,2.09c-6.49,5-9.72,3.99-12.18-4.15c-0.65-2.15-1.44-4.06-3.13-5.52
					c-3.42-2.97-6.09-2.73-8.65,1.03c-1.54,2.27-3.21,4.1-6.07,2.88c-1.91-0.81-3.23-2.57-2.72-4.84c0.68-2.95,2.9-3.49,5.7-3.65
					c5.22-0.28,7.2-5.77,3.56-10.37c-1.88-2.37-3.32-4.88-4.78-7.48c-3.45-6.13-9.84-7.55-16.24-3.84c-0.81,0.47-1.44,1.78-2.51,1.1
					c-1.32-0.83-0.44-2.04-0.08-3.11c6.2-18.84,7.23-38.16,5.11-57.71c-0.46-4.25,0.36-5.16,4.34-3.57
					c32.51,12.99,53.22,35.49,57.8,71.17C631.5,167.5,631.73,170.61,631.66,173.95z"/>
				<path class="st1" d="M350.45,174.31c0.02-35.26,20.89-65.57,53.45-79.09c2.8-1.16,6.24-4.25,8.62-2.27
					c2.17,1.8,0.24,5.89-0.01,8.99c-1.37,16.9,0.27,33.53,4.73,49.89c0.42,1.52,1.91,3.4,0.55,4.65c-1.51,1.38-2.96-0.71-4.38-1.32
					c-3.36-1.44-6.71-1.33-9.51,0.74c-5.43,4.02-8.74,9.84-10.81,16.04c-1.28,3.84,1.26,6.19,5.52,6.24c3.6,0.04,5.82,1.7,4.97,5.6
					c-0.35,1.61-1.58,2.92-3.48,3.18c-1.89,0.26-3.13-0.67-4.2-2.11c-1.55-2.08-2.78-4.98-6.15-4.02c-3.22,0.92-5.6,2.99-6.12,6.51
					c-0.45,3.01-2.67,4.96-4.24,7.24c-1.87,2.73-4.37,1.04-6.04-0.37c-2.88-2.42-5.76-4.44-9.67-4.64
					c-1.46-0.08-2.08-1.33-2.89-2.45c-1.05-1.44-2.5-3.51-3.91-3.63C349.24,182.89,350.24,177.59,350.45,174.31z"/>
				<path class="st5" d="M792.62,653.08c0.67-13.57,1.47-27.14,1.91-40.72c0.12-3.6,1.56-3.32,3.55-1.86
					c9.56,7.03,20.58,11.34,30.91,16.93c6.24,3.38,6.42,5.7,0.39,9.22c-10.87,6.35-21.94,12.37-32.96,18.47
					C794.22,656.34,791.8,657.41,792.62,653.08z"/>
				<path class="st5" d="M188.51,653.36c0.62,2.93-0.93,3.11-2.99,2.03c-12.04-6.31-24.22-12.39-35.49-20.05
					c-3.91-2.66-3.53-5.06,1.26-7.63c7.74-4.15,15.67-7.97,23.43-12.1c2.92-1.55,5.64-3.48,8.35-5.4c2.64-1.87,3.34-1.03,3.47,1.89
					C187.12,625.86,187.83,639.61,188.51,653.36z"/>
				<path class="st6" d="M27.09,611.83c28.22,7.91,56.02,9.73,84.22,5.27c14.7-2.32,28.71-7.09,42.78-11.67
					c6.16-2.01,12.55-2.96,20.05-3.63c-4.74,4.96-9.97,7.37-15,10.04c-7.03,3.73-14.66,6.32-21.16,11.08
					c-5.77,4.22-8.92,11.97-3.22,18.59c0.82,0.96,1.18,2.36,1.6,3.6c3.31,9.63,3.51,19.54,2.81,29.57
					c-1.28,18.43-2.49,36.86-3.52,55.31c-0.2,3.5-1.68,4.99-4.87,5.68c-17.58,3.84-35.21,7.09-53.29,7.5
					c-20.7,0.47-40.75-2.8-60.3-9.55c-2.81-0.97-3.01-2.15-1.61-4.7c3.03-5.54,6.43-10.89,8.82-16.78
					c3.7-9.09,4.23-17.96-0.51-26.93c-5.27-9.98-5.14-19.31,1.23-29.49c7.35-11.74,5.96-25.24,3.34-38.37
					C28.16,615.76,27.69,614.19,27.09,611.83z"/>
				<path class="st6" d="M808.22,602.51c8.32,0.34,16.42,1.74,24.16,4.64c31.19,11.67,63.29,15.12,96.21,10.38
					c8.33-1.2,16.61-2.91,25.48-5.74c-2.9,9.25-3.6,18.07-3.04,27.02c0.4,6.42,1.55,12.75,5.26,17.99c6.03,8.53,6.67,17.33,1.8,26.2
					c-7.56,13.78-4.04,26.29,3.29,38.65c1.44,2.43,2.53,5.07,4.07,7.42c1.91,2.9,0.7,3.84-2.09,4.82
					c-31.32,11.08-63.22,11.68-95.51,5.47c-5.87-1.13-11.71-2.46-17.57-3.63c-2.67-0.53-4.19-1.62-4.64-4.74
					c-0.86-5.96-1-11.94-1.23-17.91c-0.72-18.26-3.79-36.42-2.43-54.77c0.5-6.7,1.84-13.1,5.63-18.86
					c2.51-3.81,1.64-9.88-1.45-13.37c-5.15-5.82-12.27-8.37-18.98-11.61C820.47,611.24,813.66,608.16,808.22,602.51z"/>
				<path class="st2" d="M487.18,16.36c2.76,0,5.06,0,7.65,0c-1.11,4.69-4.49,9.42-0.64,13.75c4.17,4.68,8.93,0.35,13.65-0.2
					c0.08,1.48,0.13,2.78,0.23,4.08c0.22,2.78-0.75,3.83-3.38,2.28c-1.78-1.05-3.64-1.44-5.71-1.42c-4.4,0.03-6.51,2.27-6.29,6.51
					c0.29,5.64,2.34,10.71,6.14,14.88c5.93,6.5,9,13.74,7.26,22.72c-0.63,3.25-0.63,6.55,2.75,8.93c2.32,1.63,0.97,4.32,0.79,6.51
					c-0.3,3.64-1.95,7.03-1.93,10.77c0.02,2.94,0.59,5.38,3.87,6.02c3.01,0.59,4.62-1.09,5.58-3.77c0.38-1.06,1.07-2,1.71-3.15
					c2.63,6.23,2.15,8.65-2.41,12.74c-7.13,6.4-11.5,14.58-14.79,23.38c-0.95,2.53-1.6,2.76-4.12,1.6
					c-4.37-2.01-9.21-2.02-13.55,0.19c-2.36,1.2-2.91,0.27-3.52-1.48c-3.64-10.45-9.59-19.2-18.07-26.44
					c-2.99-2.55,0.53-6.33,0.64-9.87c0.94,1.63,1.98,3.22,2.81,4.91c1.25,2.55,3.05,4,5.96,3.16c3.04-0.88,3.51-3.39,3.08-6
					c-0.79-4.75-1.89-9.45-2.73-14.19c-0.27-1.55-0.89-3.35,1.02-4.49c3.58-2.14,3.19-5.55,2.65-8.87
					c-1.41-8.68,0.87-16.13,7.18-22.28c3.89-3.79,5.38-8.84,6.29-13.79c1.22-6.65-4.13-9.95-11.17-6.85
					c-4.17,1.83-4.78,0.55-4.73-3.26c0.04-2.88,0.83-3.58,3.44-2.35c3.67,1.72,7.36,3.4,10.92-0.37c3.33-3.52,1.71-7.04,0.21-10.61
					C487.68,18.63,487.56,17.8,487.18,16.36z"/>
				<path class="st6" d="M156.64,656.72c10.36,5.14,20.59,10.19,30.79,15.29c36.26,18.09,73.57,33.84,110.81,49.74
					c29.61,12.64,59.44,24.78,89.64,35.94c24.43,9.02,48.97,17.72,74.27,24.22c14.19,3.64,28.29,6.26,42.81,3.45
					c14.68-2.84,29.03-7.11,43.23-11.78c36.58-12.05,72.45-26,108.09-40.56c34.57-14.13,68.7-29.28,102.84-44.43
					c20.8-9.23,40.97-19.7,61.29-29.88c1.32-0.66,2.5-1.66,4.52-1.51c-0.6,5.66-0.98,11.28-0.93,16.93
					c0.2,18.65,2.81,37.09,4.78,55.59c1.16,10.9,3.28,21.7,3.26,32.73c-0.01,4.08-1.34,6.85-4.74,9.15
					c-20.14,13.62-41.58,24.96-63.01,36.35c-39.46,20.98-79.73,40.27-120.59,58.35c-31.59,13.98-63.58,26.97-96.55,37.34
					c-21.01,6.61-42.34,11.46-64.68,9.98c-14.38-0.95-28.29-4.13-42-8.21c-44.04-13.1-86.09-31.31-127.79-50.34
					c-36.71-16.75-72.88-34.61-108.39-53.8c-16.52-8.92-32.88-18.12-48.65-28.35c-4.61-2.99-6.89-6.47-6.64-12.26
					c0.46-10.5,2.36-20.8,3.36-31.22c2.27-23.63,6.58-47.15,3.92-71.06C156.22,657.94,156.46,657.47,156.64,656.72z"/>
				<path class="st2" d="M668.94,612.91c2.79,3.9,7.25,6.36,9.37,10.87c0.36,0.76,1.22,1.21,2.07,0.58c0.67-0.5,0.35-1.23,0.09-1.82
					c-0.4-0.91-0.92-1.76-1.35-2.66c-2.05-4.31-2.55-8.54-1.67-13.48c1.9-10.65,3.19-21.53-2.06-31.79
					c-0.9-1.77-0.15-3.02,0.82-4.02c1.64-1.71,2.68,0.37,3.67,1.12c3.27,2.48,4,6.51,5.65,11.56c2.31-7.06,1.58-12.94-1.77-16.94
					c-4.35-5.19-2.06-9.36-0.43-14.03c0.82-2.34,2.18-4.5,2.83-6.88c1.04-3.8,2.46-4.44,5.62-1.75
					c11.75,9.96,19.9,21.21,14.58,37.73c-1.18,3.67,1.71,4.03,3.9,4.09c5.85,0.16,11.26-1.58,15.5-5.7c2.56-2.49,3.64-2.4,5.19,0.96
					c3.29,7.13,3.88,14.36,1.94,21.87c-2.44,9.45-6.21,18.27-12.88,25.57c-3.31,3.62-7.17,6.1-12.34,3.61
					c-4.21-2.02-6.91-7.34-6.44-12.57c0.66-7.28,6.8-12.38,14-11.53c1.19,0.14,2.47,0.72,2.68-1.04c0.55-4.62,0.03-9.07-3.49-12.51
					c-3.08-3-6.41-5.72-12.29-3.77c3.02,1.51,5.29,2.55,7.46,3.75c2.5,1.39,4.03,3.48,3.77,6.48c-0.21,2.54-1.2,3.73-3.9,2.21
					c-5.63-3.16-11.38-5.31-16.94,0.07c-4.84,4.68-6,13.36-2.96,20.56c4.2,9.93,12.41,14.75,23.38,12.16
					c13.2-3.12,24.96-9.2,32.85-20.96c2.93-4.37,4.68-9.2,4.47-14.53c-0.19-4.69-3.15-6.46-6.96-3.82
					c-3.14,2.17-3.73,0.56-4.22-1.87c-0.9-4.43,0.08-8.53,2.27-12.47c2.75-4.95,5.26-10.01,5.56-15.86
					c0.16-3.12-0.34-6.11-2.27-8.51c-6.19-7.67-12.87-14.82-21.77-19.54c-4.54-2.41-9.44-3.08-14.37-3.84
					c-0.9-0.14-2.1-0.54-2.48,0.84c-0.43,1.58,0.73,1.99,1.92,2.29c0.32,0.08,0.65,0.14,0.98,0.19
					c14.86,2.06,16.49,7.83,17.07,17.82c0.92,15.93-3.35,23.18-15.41,26.99c-0.86-0.92-0.38-1.77,0.05-2.72
					c5.16-11.5,3.43-21.6-5.21-30.71c-3.34-3.53-6.96-6.95-11.39-8.81c-4.73-1.99-4.28-4.43-2.86-8.45
					c3.01-8.58,5.33-17.4,8.03-26.09c0.59-1.88,1.53-3.67,2.39-5.45c1.9-3.91,3.78-7.9,3.56-12.33c-0.22-4.6,0.62-8.91,2.39-13.66
					c5.15,3.66,6.03,8.82,6.28,14.42c0.26,5.72-2.44,10.42-5.77,15.76c6.64-2.71,10.3-8.31,21.14-31.11
					c2.76,3.47,2.12,8.87-1.64,16.32c-2.67,5.29-6.77,9.52-10.31,14.31c5.25-1.33,9.27-4.31,12.63-8.11
					c5.06-5.73,9.67-11.89,14.91-17.45c8.86-9.39,18.42-17.91,31.65-20.69c2.36-0.5,4.72-1.22,7.82-0.59
					c-2.55,3.67-6.35,4.92-9.17,7.31c-6.13,5.18-12.26,10.28-15.57,17.89c-0.69,1.59-2.03,2.53-3.43,3.51
					c-6.55,4.56-13.04,9.21-19.55,13.83c-1.56,1.11-3.37,2-4.19,4.47c3.33,0.15,5.54-1.71,7.96-2.77c12-5.3,23.77-11.17,36.55-14.49
					c1.05-0.27,2.25-1.44,3.11-0.11c0.68,1.04-0.07,2.22-0.71,3.23c-3.85,6-9.42,9.74-16.02,12.11c-2.29,0.82-4.62,1.57-6.91,2.99
					c4.44,1.92,9.2,1.91,13.61,3.35c7.32,2.39,14.59,4.69,19.91,10.73c7.44,8.45,4.38,24.23-5.34,27.5c-3.27,1.1-6.6,0.61-9.91,0.54
					c-2.71-0.06-2.71-1.39-1.1-3.12c3.2-3.44,5.8-7.25,7.63-11.61c3.66-8.69,1.3-15.65-7.29-19.25c-7.23-3.04-14.86-4.7-22.82-4.7
					c-3.41,0-5.78,1.23-7.29,4.19c-1.18,2.3-2.72,4.24-5.3,4.97c-7.73,2.2-14.34,6.96-21.94,9.43c-0.82,0.27-1.81,0.52-1.87,1.39
					c-0.08,1.08,0.87,2.02,1.81,2.12c15.99,1.65,25.26,13.92,36.35,23.17c7.5,6.25,15.11,12.55,18.32,22.5
					c2.79,8.67,3.87,17.5,3.75,26.53c-0.01,0.81-0.04,2.11-0.5,2.35c-5.19,2.77-3.76,8.04-4.86,12.36
					c-1.56,6.13-3.29,12.07-7.42,17.25c-3.31,4.15-4.91,9.42-6.17,14.63c-2.86,11.85,5.04,19.99,17.04,17.66
					c0.46-0.09,0.96,0.05,1.47,0.08c-3.05,9.7-12.37,12.37-20.17,10.02c-1.43-0.43-2.99-0.87-4.11-1.77
					c-3.96-3.17-6.47-3.02-8.19,2.33c-1.04,3.24-2.78,1.59-4.2-0.23c-6.15-7.87-6.05-17.48,0.17-27.45
					c3.62-5.8,8.85-9.84,14.26-13.72c3.8-2.73,7.48-5.57,10.13-9.49c1.98-2.94,3.16-6.1,0.21-9.06c-2.96-2.96-6.52-3.37-9.99-0.98
					c-2.02,1.4-3.79,3.23-5.45,5.07c-10.1,11.17-21.84,19.91-36.21,24.81c-4.73,1.62-9.47,3.25-13.51,6.27
					c-4.53,3.39-8.38,7.28-7.35,13.7c0.32,2-0.39,2.6-2.41,2.56c-5.52-0.1-11.86-3.9-13.31-8.2c-1.39-4.13,1.28-10.39,6.57-13.43
					c3.16-1.82,2.88-3.06,1.08-5.58c-7-9.73-16.56-13.65-27.21-11.19c-6.95,1.6-9.55,6.83-11.44,14.08
					c-2.3-6.79,0.98-10.61,4.21-14.25c3.2-3.6,6.98-6.69,10.07-10.38c2.55-3.04,5.25-3.83,8.78-2.37c1.02,0.42,2.22,1.8,3.1,0.68
					c1.23-1.55-0.51-2.59-1.42-3.66C667.32,613.65,667.18,612.82,668.94,612.91z"/>
				<path class="st6" d="M262.23,150.24c17.26,17.34,34.68,34.84,51.21,51.45c-23.35,16.05-43.83,36.08-60.62,59.76
					c-16.93,23.87-28.3,50.19-32.01,80.35c-5.62-6.33-10.97-11.72-16.86-16.56c-6.7-5.51-13.73-10.57-21.55-14.27
					c-4.01-1.9-4.41-4.59-4.32-8.32c0.57-23.95,7.57-46.11,18.47-67.19c15.46-29.91,36.52-55.46,61.37-77.99
					C260.3,155.29,262.69,153.33,262.23,150.24z"/>
				<path class="st6" d="M667.26,201.09c17.08-17.48,34.16-34.97,51.25-52.45c0.49,0.29,0.97,0.57,1.46,0.86
					c-0.49,3.96,1.96,5.99,4.47,8.27c28.62,26.07,52.32,55.84,67.56,91.72c7.47,17.58,12.23,35.88,11.99,55.22
					c-0.03,2.32-0.27,4.06-2.64,5.27c-14.71,7.48-27.43,17.55-38.43,29.82c-0.29,0.33-0.79,0.47-1.59,0.92
					c-2.11-13-5.1-25.49-9.73-37.62c-10.15-26.58-26.09-49.26-45.7-69.59c-9.85-10.2-20.59-19.4-31.67-28.22
					c-1.84-1.46-3.59-3.06-6.24-2.35c-0.69,0.16-1.18-0.03-1.36-0.77C666.48,201.6,666.9,201.37,667.26,201.09z"/>
				<path class="st2" d="M717.61,303.56c-1.2,26.39-2.37,52.78-3.61,79.17c-0.56,11.93-0.74,23.92-2.03,35.78
					c-2.07,18.96-4.96,37.79-9.62,56.36c-4.27,17.05-8.61,34.09-14.01,50.8c-3.71,11.5-8.31,22.74-13.02,33.87
					c-4.38,10.33-8.88,20.69-14.36,30.46c-5.97,10.65-11.34,21.63-18.34,31.78c-7.63,11.06-14.95,22.33-23.22,32.95
					c-19.6,25.17-42.16,47.33-66.66,67.77c-14.49,12.08-29.73,22.85-45.79,32.58c-3.8,2.31-8.1,3.8-11.93,6.07
					c-7.89,4.7-14.13-0.66-20.02-3.88c-11.18-6.1-21.67-13.5-31.65-21.48c-15.54-12.45-31.43-24.44-45.48-38.72
					c-7.09-7.21-14.39-14.19-21.01-21.84c-9.12-10.54-17.58-21.6-25.94-32.75c-10.49-13.98-19.33-28.99-27.97-44.13
					c-6.57-11.53-12.02-23.58-17.41-35.68c-10.66-23.97-18.49-48.82-25.04-74.2c-3.14-12.18-6.97-24.21-8.76-36.67
					c-2.12-14.77-3.85-29.58-4.85-44.51c-0.65-9.73-0.43-19.51-1.84-29.23c-0.99-6.84-0.17-13.84-0.79-20.82
					c-1.7-19.18-3.46-38.39-3.19-57.7c0.15-10.45-0.02-10.64,10.33-12.46c20.55-3.62,41.22-6.65,61.71-10.59
					c22.4-4.31,44.3-10.57,65.96-17.81c9.56-3.19,18.79-7.13,28.08-10.88c12.09-4.89,23.9-10.56,35.57-16.42
					c8.43-4.23,17.09-7.9,25.58-11.98c2.22-1.07,3.9,0.38,5.59,1.16c14.89,6.9,29.56,14.29,44.61,20.84
					c22.79,9.91,45.72,19.37,69.9,25.74c20.48,5.4,41.21,9.43,61.91,13.66c14.14,2.88,28.42,5.07,42.7,7.18
					c3.54,0.53,4.48,1.88,4.32,5.09c-0.18,3.48-0.04,6.99-0.04,10.48C717.41,303.56,717.51,303.56,717.61,303.56z"/>
				<path class="st2" d="M313.14,615.79c-0.45,1.88-0.85,3.67,2.15,2.22c4.18-2.02,7.17-0.6,9.84,2.96
					c2.09,2.77,4.78,5.09,7.15,7.66c0.89,0.96,2.06,2.15,1.16,3.47c-0.97,1.42-2.04-0.07-3.01-0.46
					c-11.35-4.56-25.66,0.75-31.4,11.54c-1.17,2.2,0,2.9,1.59,3.82c2.96,1.71,5.09,4.16,6.44,7.36c1.6,3.78,1.16,7.2-1.65,10.14
					c-3.19,3.32-7.42,4.28-11.82,4.53c-1.23,0.07-1.62-0.96-1.5-2.09c1.01-9.54-5.58-13.75-12.64-17.04
					c-8.86-4.12-18.41-6.63-26.5-12.52c-6.75-4.92-13.25-10.04-18.68-16.44c-2.06-2.43-4.22-4.7-7.5-5.51
					c-3.34-0.83-5.83,0.46-7.92,2.93c-2,2.35-1.2,4.7,0.08,6.95c2.62,4.58,6.52,7.91,10.84,10.83c9.51,6.42,17.08,14.2,18.85,26.27
					c0.9,6.12-1.28,11.1-4.91,15.62c-2.02,2.52-3.26,1.18-4.04-1.25c-1.24-3.85-2.92-4.51-6.77-2.16
					c-9.33,5.7-20.89,4.62-25.82-8.39c6.22,2.65,11.5,1.79,15.95-3.11c3.02-3.32,4.14-6.99,3.41-11.47
					c-0.96-5.84-2.44-11.66-6.03-16.22c-5.76-7.31-7.33-15.87-9.11-24.49c-0.17-0.81,0.08-1.9-0.37-2.42
					c-8.39-9.5-2.39-19.6-0.8-29.21c2.18-13.17,13.12-20.32,22.16-28.57c3.68-3.36,7.68-6.38,11.35-9.76
					c5.91-5.45,12.63-9.15,20.67-10.19c1.42-0.18,2.79-0.45,2.92-2.09c0.12-1.52-1.32-1.52-2.39-1.97
					c-7.49-3.18-14.91-6.54-22.41-9.67c-2.07-0.86-3.18-2.48-4.01-4.22c-1.87-3.92-4.9-5.02-8.99-4.61
					c-6.98,0.69-13.84,1.87-20.39,4.46c-8.82,3.5-11.88,10.5-8.36,19.28c1.68,4.2,4.18,7.94,7.22,11.3c0.76,0.84,2.1,1.53,1.51,2.86
					c-0.55,1.25-2.01,0.86-3.11,1c-7.54,0.95-13.05-1.35-15.93-6.62c-3.67-6.71-2.85-16.2,1.89-21.56
					c5.07-5.73,11.81-8.42,18.94-10.42c4.71-1.32,9.52-2.18,14.6-3.34c-9.74-4.3-20.17-7.37-24.65-19.16
					c6.12,0.65,11.33,2.69,16.42,4.76c9.54,3.89,18.89,8.24,28.31,12.41c1.13,0.5,2.46,2.06,3.37,0.39
					c0.83-1.51-1.17-2.23-2.11-2.91c-6.99-5.09-14.04-10.08-21.14-15c-1.4-0.97-2.84-1.93-3.53-3.43
					c-4.58-9.99-12.85-16.34-21.66-22.18c-1.06-0.7-2.32-1.32-2.5-3.31c9.73,0.3,18.01,3.88,25.64,9.44
					c9.12,6.65,16.52,14.95,23.27,23.87c3.97,5.24,8.58,9.7,14.22,13.1c0.96,0.58,1.79,1.63,3.34,0.57
					c-0.17-2.12-2.06-3.09-3.32-4.45c-5.79-6.26-9.92-13.33-10.56-22.03c-0.1-1.39-0.69-3.51,0.97-3.94
					c1.98-0.52,1.91,1.75,2.44,3.04c3.39,8.17,7.28,16.07,12.9,22.97c1.27,1.56,2.27,3.65,5.56,4.04
					c-4.81-8.76-6.45-17.33-1.03-27.13c2.03,7.39,3.69,13.85,5.59,20.24c3.87,13,7.82,25.98,11.89,38.92
					c0.79,2.52,0.33,3.81-2.02,5.1c-3.65,2-6.85,4.7-9.84,7.63c-8.81,8.62-10.63,18.76-6.69,30.21c0.41,1.19,1.43,2.26,0.89,3.98
					c-8.21-1.8-12.78-7.08-14.96-14.85c-1.91-6.8-1.01-13.59,0.68-20.16c1.63-6.38,7.42-7.94,12.98-9.45
					c2.05-0.56,5.99,0.23,5.55-2.44c-0.47-2.91-3.97-0.78-5.94-0.49c-15.47,2.29-25.54,12.58-33.37,24.77
					c-3.74,5.82-0.8,12.96,2.47,19.01c2.63,4.85,5.47,9.66,3.98,15.54c-0.53,2.11-0.4,5.02-4.17,2.11
					c-3.72-2.87-7.13-0.65-7.18,4.18c-0.06,5.17,1.5,10.03,4.52,14.03c10.17,13.47,23.54,21.36,40.75,21.35
					c8.38,0,12.63-6.02,15.6-12.79c3.12-7.1,2.49-14.09-2.8-20.05c-3.53-3.98-9.7-4.14-15.72-1.17c-1.38,0.68-2.82,3.23-4.62,0.83
					c-1.47-1.95-0.97-4.11,0.4-6.04c2.26-3.2,5.82-4.48,10.11-5.78c-6.32-2.26-12.74,1.37-14.9,7.66c-0.64,1.87-0.99,3.86-1.28,5.83
					c-0.39,2.64,0.15,4.11,3.51,3.38c6.1-1.32,12.24,3.49,13.54,10.2c1.2,6.18-2.97,13.48-8.44,14.71
					c-2.84,0.64-5.41-0.55-7.48-2.07c-9.14-6.71-21.89-32.24-14.64-47.88c2.61-5.64,2.28-5.68,7.02-1.99
					c4.2,3.27,9.11,4.85,14.41,4.79c3.45-0.04,5.24-1.43,3.81-5.43c-5.34-14.95,4.75-28.7,14.72-36.26c1.72-1.3,2.42-0.92,3.11,1.03
					c1.93,5.47,3.96,10.92,6.14,16.3c0.69,1.71-0.05,2.75-0.74,4.11c-1.88,3.74-3.2,7.68-3.12,11.95c0.02,0.95-0.23,2.2,1.09,2.45
					c1.35,0.26,1.51-0.87,1.77-1.87c0.25-0.96,0.46-2.06,1.08-2.75c1.15-1.27,1.93-3.95,3.9-3.19c2.17,0.83,2.52,3.38,1.83,5.61
					c-1.99,6.45-2.67,13.01-1.92,19.71c0.16,1.48,0.25,2.99,0.58,4.44c1.65,7.13,2.35,14.14-2.06,20.66
					c-0.47,0.7-0.8,1.47,0.29,2.72c3.07-3.37,6.11-6.7,9.16-10.04C312.44,613.91,313.08,614.19,313.14,615.79z"/>
				<path class="st6" d="M721.45,372c1.94,0,3.71,0.07,5.47-0.01c6.01-0.27,8.89-5.29,5.67-10.42c-2.55-4.06-4.81-7.91-2.18-12.93
					c4.29,6.34,7.49,13.48,13,19.08c7.61,7.74,13.76,7.19,19.05-2.08c4.9-8.58,10.68-16.44,18.3-23.61
					c23.6,40.89,37.42,84.75,43.89,131.15c-5.11-8.68-9.75-17.59-15.31-25.95c-4.23-6.37-8.65-12.61-12.94-18.94
					c-1.73-2.55-4.12-3.4-6.92-2.63c-2.96,0.82-3.49,3.28-3.19,5.97c0.62,5.67,0.28,11.28-0.56,16.9c-0.4,2.67-0.94,4.92-4.47,4.2
					c-0.63-0.13-1.32,0.08-1.99,0.11c-3.29,0.17-7.3,3.14-9.4,1.25c-1.9-1.71-1.44-6.14-2.27-9.36
					c-5.82-22.64-14.34-44.23-25.08-64.97c-2.37-4.58-4.63-5.25-9.86-3.19C726.03,379.18,724.48,378.6,721.45,372z"/>
				<path class="st6" d="M157.85,473.33c6.07-46.58,19.9-90.34,43.34-131.32c7.72,7.18,14.1,14.84,18.37,23.87
					c4.02,8.5,12.78,8.78,18.18,2.89c4.07-4.45,7.31-9.42,10.76-14.68c1.78,2.01,3.6,3.28,1.84,6.35
					c-5.21,9.13-4.23,10.8,6.44,11.97c-1,4.53-3.61,6.41-8.19,5.12c-5.49-1.54-8.49,0.79-10.96,5.74
					c-10.15,20.32-17.98,41.46-23.78,63.41c-0.71,2.67,0.52,6.66-1.77,7.71c-2.09,0.96-5.39-0.76-8.17-1.25
					c-7.68-1.35-7.74-1.34-8-9.14c-0.12-3.65-0.07-7.31,0-10.96c0.06-3.03,0.43-6.29-3.1-7.66c-3.57-1.38-5.52,1.26-7.37,3.67
					c-9.26,12.02-17.36,24.78-24.32,38.27C160.05,469.33,158.93,471.32,157.85,473.33z"/>
				<path class="st2" d="M535.65,222.79c-0.13-3.22,0.44-5.35,4.63-5.71c3.88-0.33,7.7-1.79,11.65-2.44
					c5.6-0.92,8.71-4.96,10.55-10.53c-1.26,7.65,1.16,13.43,7.7,17.13c5.81,3.29,11.99,5.73,18.65,6.62
					c3.12,0.42,6.31,0.38,9.47,0.38c1.9,0,2.95,0.71,2.57,2.63c-0.44,2.16,1.87,5.26-0.85,6.32c-2.79,1.09-6.36,1.45-9.14-0.38
					c-1.78-1.17-3.36-1.82-5.46-1.77c-8.39,0.19-15.86-3.2-23.4-6.26c-0.45-0.18-1.18-0.43-1.23-0.73
					c-1.17-7.41-6.89-5.06-11.32-5.21C544.99,222.66,540.5,222.79,535.65,222.79z"/>
				<path class="st2" d="M419.61,204.5c2.84,10.23,11.86,9.99,19.5,12.07c1.15,0.31,2.63-0.25,3.31,1.55
					c1.22,3.21,0.2,4.92-3.28,4.76c-5.78-0.26-11.58,0.48-17.35-0.89c-2.97-0.7-5.42,0.76-5.32,4.19c0.08,2.69-1.55,3.45-3.46,4.11
					c-6.88,2.38-13.63,5.36-21.18,4.82c-1.15-0.08-2.33-0.12-3.24,0.87c-1.98,2.16-4.96,2.51-6.79,1.11
					c-2.32-1.78-0.31-4.93-0.24-7.45c0.06-2.08,2.35-1.38,3.68-1.33c7.28,0.24,14.2-1.23,20.78-4.27
					C416.96,218.96,420.17,217.08,419.61,204.5z"/>
				<path class="st0" d="M428.45,230.92c-2.08-2.88-4.72-1.63-6.32-3.92c6.17,0,11.97-0.2,17.75,0.08c3.19,0.15,3.95,5.23,8.14,4.45
					c0.94-0.17,0.69,1.4-0.54,1.87c-4.13,1.6-7.91,3.93-12.76,3.53c-10.9-0.91-19.89,2.97-26.42,11.93
					c-1.71,2.35-3.99,3.21-7.21,3.42c1.7-3.05,3.2-5.74,4.91-8.81c-3.94-0.11-6.75,2.77-10.32,2.32c-2.09-0.27-3.94-0.34-4.37-3.02
					c-0.39-2.42-0.73-4.09,2.87-3.73c5.04,0.5,9.84-1.22,14.59-2.74C415.03,234.29,420.83,230.87,428.45,230.92z"/>
				<path class="st0" d="M530.3,231.45c2.59,0.43,4.13-0.55,5.31-2.56c0.67-1.14,1.83-1.94,3.3-1.94c5.59,0,11.18,0,16.84,0
					c-0.37,2.81-3.8,0.79-4.64,3.6c11.31,1.52,21.02,8.49,32.68,8.65c1.32,0.02,3.84-1.45,3.58,1.48c-0.18,2.07-0.29,4.9-3.66,5.02
					c-2.36,0.09-4.66-0.11-6.81-1.15c-1.16-0.56-2.16-1.59-4.04-0.98c0.16,3.01,3.23,4.78,3.56,8.1c-2.94-0.88-5.43-1.97-7.45-4.36
					c-6.43-7.64-14.78-11.05-24.7-10.48C538.83,237.16,534.65,234.52,530.3,231.45z"/>
				<path class="st7" d="M769.71,541.11c-0.98-13.97-12.06-19.57-25.92-21.05c6.14-8.81,6.11-8.69,16.79-6.48
					c4.59,0.95,9.1,1.94,13.2,4.28c4.97,2.83,6.15,6.42,3.97,11.75C775.49,535.11,773.17,538.43,769.71,541.11z"/>
				<path class="st7" d="M212.43,541.83c-4.76-4.71-7.98-9.8-9.05-15.92c-0.53-3.04,1.04-5.81,3.94-7.51
					c7.07-4.13,14.95-5.34,22.89-6.26c1.98-0.23,3.39,0.6,4.38,2.55c0.96,1.88,2.45,3.49,3.83,5.37
					C225.47,521.88,213.93,525.35,212.43,541.83z"/>
				<path class="st7" d="M770.8,565.74c10.59,4.32,20.18,8.52,29.92,0.8c3.57,4.88,3.83,9.83,0.5,14.82c-3,4.5-7.56,4.78-12.4,4.53
					c-3.53-0.18-6.57-2.24-10.17-2.19c-1.54,0.02-1.58-1.93-1.88-3.17C775.59,575.66,773.9,571,770.8,565.74z"/>
				<path class="st2" d="M734.78,115.69c12.29-4.13,23.78-9.72,34.75-16.68c-6.3,11.47-13.03,22.57-16.35,35.35
					c-2.18-0.68-2.06-2.74-3.1-3.81c-3.58-3.73-8.4-6.19-10.57-11.42C739,117.92,735.8,118.21,734.78,115.69z"/>
				<path class="st2" d="M247.57,115.69c-1.64,3.01-5.52,2.27-6.06,4.18c-1.32,4.69-4.62,6.65-8.44,8.73
					c-1.83,1-1.14,4.45-4.04,5.77c-3.67-12.55-9.82-23.83-16.46-35.12C223.82,105.68,235.04,112.01,247.57,115.69z"/>
				<path class="st7" d="M210.78,565.82c-1.45,3.5-2.46,6.49-3.89,9.27c-1.44,2.78-0.42,7.7-3.16,8.39
					c-5.18,1.29-10.43,3.57-16.08,2.38c-7.31-1.54-11.58-11.07-7.65-17.33c0.52-0.83,0.84-2.46,2.51-1.25
					c8.57,6.24,17.01,3.21,25.44-0.37C208.69,566.59,209.46,566.32,210.78,565.82z"/>
				<path class="st7" d="M658.85,613.68c-4.84,3.05-7.4,8.47-12.38,11.51c9.86-14.53,17.05-30.52,25.65-46.48
					c2.17,2.54,2.38,5.35,2.61,7.94c0.66,7.32-0.03,14.57-1.81,21.71c-0.27,1.1-0.39,2.35-2.06,1.49c-2.15-1.84-4.47-1.12-5.67,0.7
					C663.53,613.03,661.24,613.23,658.85,613.68z"/>
				<path class="st2" d="M714.43,435.67c0.38-12.27,2.64-16.17,2.67-28.47c0-1.29,0.23-2.23,1.86-2.22
					c1.43,0.01,1.78-1.16,1.09-2.03c-4.36-5.54-1.89-11.72-1.76-17.66c0.05-2.23,0.49-4.45,1.14-6.71
					c1.96,5.43,4.29,10.21,4.12,16.71c-0.21,8.14-3.36,15.49-3.66,23.35c-0.36,9.32,3.48,12.35,12.45,10.43
					c-0.04,5.8-5.16,9.02-12.28,7.72C717.43,436.47,716.2,435.93,714.43,435.67z"/>
				<path class="st7" d="M729.57,547.92c15.24,12.06,16.61,18.83,6.94,33.55c-2.69-2.57-2.7-7.81-7.86-7.9
					c-0.9-0.01-0.32-1.37-0.05-2.11C731.29,563.82,729.78,556.02,729.57,547.92z"/>
				<path class="st7" d="M245.75,581.3c-10.61-15.98-8.19-20.63,7.31-33.7c-1.96,8.67-2.08,16.59,0.53,24.34
					c0.22,0.65,0.46,1.6-0.26,1.64C248.42,573.84,248.05,578.5,245.75,581.3z"/>
				<path class="st7" d="M309.89,610.57c-2.75-9.2-4.04-18.47-1.35-29.38c6.13,13.13,13.15,24.23,20.1,36.67
					c-2.47-1.9-3.95-3.04-5.43-4.18c-2.29-0.54-4.54-0.56-6.21-3.03C315.1,607.83,312.3,609.8,309.89,610.57z"/>
				<path class="st2" d="M724.26,139.91c-1.09-4.44,0.44-7.28,3.48-9.2c3.21-2.02,7-1.21,10.19-0.38
					c3.18,0.83,0.89,11.23-2.76,13.46c-3.39,2.07-6.87,0.45-10.17,0.19C722.96,143.82,724.89,140.79,724.26,139.91z"/>
				<path class="st2" d="M248.02,129.87c6.5-0.25,9.94,2.49,10.08,7.3c0.18,6.21-1.09,7.56-7.35,7.81c-4,0.16-7.99-3.75-7.75-8.09
					C243.21,133.29,241.89,127.92,248.02,129.87z"/>
				<path class="st7" d="M252.59,623.57c-9.66-4.97-15.62-12.43-17.3-24.04c3,1.68,5.44,2.86,8.2,2.04
					c0.77-0.23,1.18-0.03,1.33,0.83C246.12,609.9,249.39,616.68,252.59,623.57z"/>
				<path class="st7" d="M746.64,599.14c-1.73,12.56-8.19,19.86-18.45,25.95c4.04-7.84,7.58-14.58,8.84-22.18
					c0.24-1.43,0.87-1.9,2.36-1.58C741.69,601.82,743.91,601.39,746.64,599.14z"/>
				<path class="st2" d="M355.13,207.95c4.86,0.06,9.41,0.06,12.16-5.04c0.9-1.67,3.17,0.45,4.81,0.71c2.33,0.37,1.67,2.87,2.26,4.5
					c0.79,2.2-0.92,1.82-2,2.38c-1.15,0.59-1.97,1.83-3.13,2.37c-1.77,0.83,0.12,5.19-4.39,3.69
					C360.21,215.02,355.94,213.95,355.13,207.95z"/>
				<path class="st2" d="M626.68,209.47c-0.22,3.31-8.57,8.69-11.77,7.59c-1.02-0.35-0.56-1.37-0.84-2.06
					c-0.77-1.93-2.28-3.17-3.84-4.43c-0.92-0.74-3.58,0.57-2.77-2.18c0.61-2.1,0.37-4.84,3.63-5.18c1.75-0.18,3.45-1.78,4.84,1.09
					c1.54,3.15,4.67,3.85,8.07,3.6C625.04,207.83,626.89,207.15,626.68,209.47z"/>
				<path class="st7" d="M283.37,628.94c2.73-9.72,1.83-17.67-6.42-23.51c7.72-3.05,13.64,1.41,13.24,9.61
					C289.95,620.1,287.9,624.6,283.37,628.94z"/>
				<path class="st7" d="M698.09,627.96c-6.66-6.59-7.86-14.47-3.63-20.81c2.65-3.98,6.13-4.02,10.29-1.97
					c-2.21,3.54-6.21,5.74-6.97,10.1C697.08,619.25,697.2,623.21,698.09,627.96z"/>
				<path class="st8" d="M667.26,201.09c-0.08,0.75,0.02,1.42,0.73,1.85c-2.36,1.21-4.36,2.83-6.24,4.72
					c-15.83,15.9-31.72,31.73-47.58,47.59c-1.51,1.5-3.29,2.81-3.34,5.31c-0.03,1.23-0.74,2.25-2.15,2.29
					c-0.43,0.01-1.12-0.25-1.27-0.58c-0.63-1.37,0.61-2.08,1.27-2.96c0.8-1.06,1.61-2.12,2.54-3.05
					c17.62-17.63,35.25-35.25,52.9-52.85C665.04,202.48,665.81,201.31,667.26,201.09z"/>
				<path class="st7" d="M208.14,482.63c-4.05,0.1-6.31-1.05-6.78-5.25c-0.5-4.36-1.81-8.64-2.91-13.59
					c4.99,2.5,8.43,5.81,12.02,8.91c0.5,0.43,1.66,1.29,0.62,1.81C207.48,476.3,208.19,479.67,208.14,482.63z"/>
				<path class="st7" d="M782.95,464.44c0.16,5.66-2.05,10.8-2.83,16.17c-0.38,2.57-3.35,1.49-5.05,1.98
					c-1.71,0.49-0.9-1.6-1.1-2.56c-0.17-0.8,0.24-1.99-0.2-2.43c-5.31-5.41,0.54-6.91,3.29-9.35
					C778.75,466.74,780.31,464.91,782.95,464.44z"/>
				<path class="st9" d="M370.79,261.21c0.17-3.71-2.51-5.58-4.69-7.75c-15.78-15.77-31.56-31.54-47.33-47.33
					c-0.78-0.78-1.48-1.64-2.37-2.64c2.04-0.53,2.63,0.98,3.46,1.8c16.52,16.44,32.99,32.94,49.53,49.37
					C371.29,256.55,372.32,258.41,370.79,261.21z"/>
				<path class="st7" d="M415.85,720.06c-5.48-1.62-9.71-2.89-13.95-4.11c-2.39-0.69-4.81-1.14-7.33-1.17
					c-1.36-0.01-3.68,1.09-3.57-1.84c0.08-2.34,0.87-4.06,3.65-4.45c4.65-0.65,8.44,1.68,12.1,3.7
					C409.8,713.87,412.18,716.8,415.85,720.06z"/>
				<path class="st7" d="M563.82,719.75c4.28-4.88,8.72-8.24,13.86-10.57c2.11-0.95,4.53-0.87,6.86-0.48
					c2.68,0.44,2.8,2.83,2.94,4.59c0.19,2.36-2.09,1.49-3.32,1.51C577.26,714.85,571.05,717.85,563.82,719.75z"/>
				<path class="st2" d="M573.99,195.76c1.37-2.87,2.53-1.08,3.63-0.93c3.29,0.46,6.76,1,9.83-0.21c4.37-1.73,5.35,1.99,7.22,3.98
					c1.03,1.09-0.25,2.97-1.46,3.06c-2.24,0.17-4.71,2.86-6.73,0.2C583.35,197.74,579.33,195.71,573.99,195.76z"/>
				<path class="st2" d="M445.28,185.25c-0.09,1.97-4.37,5.29-6.28,4.76c-4.07-1.14-8.09-1.4-12.08,0.27
					c-0.73,0.31-1.53,0.93-1.85-0.42c-0.23-0.98,0.23-1.75,1.22-1.65c4.92,0.48,7.93-2.41,10.85-5.74c1.98-2.26,4.17,0.12,6.27,0.2
					C444.64,182.72,445.24,183.96,445.28,185.25z"/>
				<path class="st7" d="M240.19,639.72c-6.34-4.04-12.94-7.77-17.2-14.3c-0.81-1.24-1.95-2.74-0.63-4.03
					c1.49-1.46,3.13-0.24,4.4,0.76c1.97,1.54,3.6,3.48,4.7,5.71c2.21,4.49,6.08,7.74,8.65,11.95
					C240.11,639.81,240.19,639.72,240.19,639.72z"/>
				<path class="st2" d="M408.55,195.83c-6.06-0.2-9.86,2.13-12.94,5.87c-2.21,2.68-4.53,0.25-6.72-0.08
					c-1.32-0.2-2.28-1.84-1.38-3.14c1.35-1.94,2.98-4.88,5.45-4.21c4.66,1.26,9.04,1.23,13.56-0.13
					C406.75,194.06,407.18,194.66,408.55,195.83z"/>
				<path class="st2" d="M543.05,181.63c0.97-0.44,1.5,0.17,2.03,0.85c2.65,3.4,5.67,6.12,10.43,5.69c0.88-0.08,1.72,0.28,1.61,1.37
					c-0.19,1.77-1.29,0.94-2.12,0.61c-3.53-1.4-7.44-2.04-10.7-0.48c-3.65,1.75-4.64-1.04-6.53-2.46c-0.93-0.71-1.65-1.64-0.9-3.01
					C538.24,181.66,540.98,182.48,543.05,181.63z"/>
				<path class="st2" d="M504.44,182.58c2.71,0.21,5.65,0.25,7.46-1.9c3.48-4.15,5.7-0.37,8.17,1.04c1.3,0.74,1.42,2.83,0.02,3.28
					c-2.26,0.71-3.55,5.04-6.44,2.5c-3.31-2.91-6.88-3.64-11-3.37c-0.89,0.06-2.56,1.5-2.66-0.47c-0.12-2.33,1.86-0.96,2.97-1.07
					C503.45,182.54,503.95,182.58,504.44,182.58z"/>
				<path class="st2" d="M491.05,171.98c-0.96-4.49-1.39-8.76-4.6-12.33c-0.58-0.65,1.55-4.29,3.46-5.83
					c1.29-1.04,2.96-0.47,3.18,0.96c0.34,2.24,5.05,3.33,1.63,6.5C491.66,164.11,492,168.12,491.05,171.98z"/>
				<path class="st0" d="M515.04,215.94c1.87,0.83,3.89,0.92,5.81,0.61c4.05-0.66,3.97,1.55,2.5,3.87
					c-1.63,2.58-1.53,8.08-7.21,5.28c-1.97-0.97-3.91-1.75-2.28-4.7c0.61-1.11,0.53-2.92-0.65-4.16
					C513.12,215.12,513.93,215.24,515.04,215.94z"/>
				<path class="st2" d="M482.71,182.39c-0.49,2.07-1.89,1.95-3.5,1.83c-4.07-0.29-7.62,0.52-11.03,3.31
					c-2.94,2.41-4.91-1.46-6.6-2.99c-1.89-1.72,0.39-2.93,2-3.94c2.4-1.5,4.38-2.09,6.85,0.17
					C473.99,184.01,478.53,182.23,482.71,182.39z"/>
				<path class="st2" d="M413.18,180.68c-1.22-3.78-3.47-6.69-6.35-9.16c-2.62-2.25-0.31-4.55,0.1-6.73
					c0.26-1.39,1.94-2.29,3.16-1.35c1.86,1.42,4.82,3.03,4.11,5.52C413.11,172.84,413.21,176.63,413.18,180.68z"/>
				<path class="st2" d="M446.3,218.44c-0.15-3.34,0.46-5.04,1.97-6.24c1.32-1.05,2.75-3.39,4.53-1.72
					c2.04,1.91-1.01,2.48-1.75,3.66c-2.09,3.32-0.4,6.38,0.67,9.42c0.48,1.36,1.64,2.47,2.35,3.77c0.46,0.84,1.91,1.86-0.05,2.7
					c-1.15,0.49-2.19,0.58-3-0.68C448.58,225.58,446.93,221.5,446.3,218.44z"/>
				<path class="st2" d="M569.15,180.57c-0.72-3.88,0.24-7.56-1.34-11.3c-1.2-2.85,2.25-3.93,3.81-5.55
					c1.31-1.36,3.12-0.36,3.6,1.09c0.69,2.11,2.55,4.43,0.1,6.67C572.56,174.01,569.92,176.62,569.15,180.57z"/>
				<path class="st7" d="M719.87,357.61c0-5.38-0.01-10.14,0.01-14.9c0-0.8-0.14-1.74,0.77-2.16c1.21-0.55,1.76,0.53,2.37,1.21
					C727.57,346.76,726.53,353.24,719.87,357.61z"/>
				<path class="st7" d="M724.13,368.11c-2.5,0.03-4.74,0.5-4.77-3.57c-0.03-4.08,2.96-4.68,5.25-6.15c0.8-0.52,5.53,5.81,5.17,7.17
					C728.98,368.59,726.37,368.04,724.13,368.11z"/>
				<path class="st7" d="M258.43,339.3c-0.91,6.71,1.54,12.23,0.65,18.3c-3.55-0.96-5.72-2.99-6.14-6.43
					C252.41,346.69,253.49,342.78,258.43,339.3z"/>
				<path class="st0" d="M466.2,223.38c-1.58,2.27-3.98,2.68-5.96,3.5c-1.51,0.62-5.67-5.5-5.88-8.27
					c-0.09-1.18,0.13-2.24,1.46-1.57c2.7,1.37,5.81-0.82,8.02,0.67C465.32,218.71,463.56,222.02,466.2,223.38z"/>
				<path class="st2" d="M528.24,218.06c0.19-2.59-0.51-4.14-2.36-5.12c-0.8-0.42-1.32-1.18-0.78-2.04
					c0.65-1.03,1.79-0.98,2.65-0.41c2.24,1.48,4.45,3.08,4.39,6.18c-0.08,4.69-2.43,8.55-4.69,12.43c-0.6,1.03-1.56,1.11-2.56,0.49
					c-1.49-0.93-0.7-1.88-0.06-2.89C526.6,223.86,528.29,220.98,528.24,218.06z"/>
				<path class="st7" d="M753.36,464.03c-6.68,5.94-12.63,12.53-18.86,19.51c0.12-2.42,0.34-4.22,0.26-6.01
					c-0.09-2.3,0.23-3.91,3.16-3.63c2.47,0.24,3.79-1.81,5.36-3.23C746.3,467.96,749.4,465.39,753.36,464.03z"/>
				<path class="st7" d="M232.27,465.66c2.44,1.41,4.62,3.13,6.61,5.14c0.92,0.93,2,2.4,3.01,2.41c7.05,0.02,4.83,5.1,5.63,10.31
					c-5.86-6.49-10.57-12.14-16.27-16.77C231.04,465.86,231.28,465.4,232.27,465.66z"/>
				<path class="st0" d="M526.25,197.53c1.86,2.01,3.68,4.02,5.55,5.98c2.05,2.13,0.21,3.09-1.33,3.27c-1.9,0.23-4.05,0.04-5.8-0.67
					c-1.97-0.8-5.37-1.74-1.68-4.87C524.22,200.19,525.16,198.79,526.25,197.53z"/>
				<path class="st0" d="M447.9,206.17c2.87-3.17,5.36-5.92,7.86-8.69c1.63,1.92,3.32,3.92,5.2,6.14
					C457.21,206.41,452.96,206.56,447.9,206.17z"/>
				<path class="st7" d="M259.15,471.81c5.44,3.28,7.89,7.73,4.91,14.59c-2.6-3.95-4.53-8.1-6.07-12.48
					C257.56,472.77,257.39,471.76,259.15,471.81z"/>
				<path class="st7" d="M717.48,487.25c-0.15-5.49-2.5-10.74,3.36-13.81c0.94-0.49,1.67-2,2.86-1.1c0.77,0.58,0.53,1.86,0.08,2.78
					C721.94,478.96,720.54,483.02,717.48,487.25z"/>
				<path class="st7" d="M341.24,637.44c-2.8,0.43-5.2,0.41-6.56,2.72c-0.55,0.94-1.46,0.62-2.05-0.1
					c-3.51-4.31-8.58-4.49-13.5-5.32c3.48-1.83,6.74-0.5,9.89,0.89c2.42,1.07,5.08,1.97,6.91-0.18
					C339.75,630.98,339.46,635.62,341.24,637.44z"/>
				<path class="st7" d="M255.25,368.19c-1.21-0.43-3.12,0.93-3.7-1.26c-0.35-1.35,3.92-6.82,5.15-6.69c2.59,0.27,3.6,1.8,3.71,4.39
					C260.61,368.76,257.61,367.86,255.25,368.19z"/>
				<path class="st7" d="M310.84,650.63c-8.12-7.48-7.98-9.19,1.23-13.74C308.76,641.38,311.99,645.86,310.84,650.63z"/>
				<path class="st7" d="M309.89,610.57c4.16-3.92,6.61-3.91,8.96,0.77c1.14,2.28,3.31,0.92,4.37,2.34
					c-3.35,0.75-7.26-1.16-10.08,2.11c-0.35-0.93-1.12-0.93-1.92-0.84C312.31,613.03,314.32,610.82,309.89,610.57z"/>
				<path class="st7" d="M671.14,645.82c-0.24-10.74-7.86-13.48-20.28-7.29c3.17-6.71,14.76-6.68,22.27,0.07
					C672.94,641.14,674.62,644.19,671.14,645.82z"/>
				<path class="st7" d="M671.14,645.82c2.07-2.02-0.5-5.32,1.99-7.22c5.71,4.61,5.71,4.61-1.99,12.21
					C671.14,648.87,671.14,647.35,671.14,645.82z"/>
				<path class="st7" d="M361.13,663.95c-7.94-2.02-10.74-5.78-9.64-12.44C354.7,655.64,357.67,659.48,361.13,663.95z"/>
				<path class="st7" d="M767.94,661.79c1.16,0,2.35-0.18,3.47,0.03c2.63,0.48,6.31-1.78,7.51,2.62c1.33,4.87-0.75,9.81-5.64,12.52
					c1.54-3.67,5.33-5.58,4.71-9.66c-0.87-5.72-5.36-2.8-8.24-3.71C769.18,662.95,767.36,663.59,767.94,661.79z"/>
				<path class="st7" d="M619.52,663.08c-0.28-1.11,0.46-1.88,1.03-2.59c2-2.55,4.11-5.02,6.35-7.72
					C627.52,658.52,625,661.89,619.52,663.08z"/>
				<path class="st7" d="M658.85,613.68c1.5-1.19,3.66-0.68,4.76-3.47c1.29-3.28,4.61-4.07,7.24-0.36
					c-2.62-0.22-2.91,1.02-1.91,3.06c-0.95,0.3-0.84,1.12-0.9,1.85C665.37,611.09,661.8,615.03,658.85,613.68z"/>
				<path class="st7" d="M214.13,661.75c3.56-1.97,5.68-5.44,8.58-8.53c-0.71,6.76-4.21,10.14-10.45,10.46
					C211.54,661.74,213.1,662.23,214.13,661.75z"/>
				<path class="st7" d="M767.94,661.79c0.6,0.6,1.21,1.2,1.81,1.79c-6.24-0.1-9.49-3.12-10.61-10.31
					C762.32,656.26,764.2,660.04,767.94,661.79z"/>
				<path class="st2" d="M429.09,241.31c-4.07,2.73-7.97,3.29-11.75,4.17C420.16,241.88,423.89,240.87,429.09,241.31z"/>
				<path class="st7" d="M259.15,471.81c-1.1,0.31-0.96,1.3-1.15,2.11c-1.98-2.55-3.53-5.83-7.77-4.53
					c-1.65,0.51-1.49-0.59-1.4-1.62c0.14-1.47,0.84-2.23,2.26-1.44C253.93,467.92,257.13,469.01,259.15,471.81z"/>
				<path class="st7" d="M217.61,681.02c4.42,0,7.46,0,10.51,0C225.22,682.76,222.3,684.61,217.61,681.02z"/>
				<path class="st7" d="M726.66,469.3c1.96-1.44,3.5-3.53,6.02-2.85c0.45,0.12,1,2.24,0.65,2.6
					C731.35,471.08,728.89,469.01,726.66,469.3z"/>
				<path class="st7" d="M214.13,661.75c-0.62,0.64-1.25,1.29-1.87,1.93c-6.06-1.82-7.27-1.1-8.72,5.16c-0.75-6.46-0.31-7,5.66-7.04
					C210.84,661.79,212.48,661.77,214.13,661.75z"/>
				<path class="st10" d="M494.42,766.27c-5.24,6.41-5.24,6.41-9.33,0.82C488.49,769.35,490.78,767.99,494.42,766.27z"/>
				<path class="st7" d="M762.31,681.72c-2.9,1.94-5.66,1.38-9.51-0.57C756.76,680.6,759.54,680.69,762.31,681.72z"/>
				<path class="st2" d="M636.08,189.25c-1.21,1.52-1.57,4.47-4.17,3.88c-2.01-0.46-1.46-2.55,0.85-3.11
					C633.87,189.76,634.98,189.5,636.08,189.25z"/>
				<path class="st2" d="M345.77,189.35c1.72,1.34,4.66-0.5,5.71,2.11c0.15,0.37-0.84,1.71-1.41,1.78
					C347.46,193.58,347.25,190.77,345.77,189.35z"/>
				<path class="st7" d="M251.4,641.2c-3.59-0.98-6.52-2.94-8.79-5.9C246.35,636.06,248.51,639.18,251.4,641.2z"/>
				<path class="st2" d="M550.98,241.52c4.12-1.02,6.29,1.02,8.65,2.51C556.56,244.54,554.11,243.29,550.98,241.52z"/>
				<path class="st7" d="M204.6,671.4c2.01,2.15,4.01,4.29,6.31,6.75C205.9,676.55,205.81,676.46,204.6,671.4z"/>
				<path class="st2" d="M473.75,219.93c-0.33,1.4-1.3,1.89-2.49,1.95c-1.46,0.08-2.58-0.6-2.88-2.03
					c-0.23-1.09,0.79-1.29,1.59-1.25C471.33,218.68,472.88,218.42,473.75,219.93z"/>
				<path class="st7" d="M740.12,634.01c-1.93,4.26-5.04,4.81-7.32,6.46C734.03,637.64,736.62,636.4,740.12,634.01z"/>
				<path class="st7" d="M222.1,488.16c-2.59-0.8-4.51-0.79-5.58-2.6c-0.1-0.17,0.69-1.27,1.14-1.32
					C219.99,484.02,220.6,485.88,222.1,488.16z"/>
				<path class="st7" d="M232.27,465.66c-0.34,0.36-0.69,0.72-1.03,1.08c-1.9-1.36-3.8-2.71-5.7-4.07
					C228.52,462.38,230.54,463.73,232.27,465.66z"/>
				<path class="st7" d="M769.41,504.46c1.36-1.83,2.82-2.48,4.27-3.17C774.12,504.81,774.12,504.81,769.41,504.46z"/>
				<path class="st7" d="M770.14,479.89c-0.12,1.36-0.95,2.07-2.23,2.17c-0.93,0.07-1.63-0.37-1.24-1.48
					c0.39-1.1,0.98-2.23,2.21-2.39C769.91,478.04,770.08,479.03,770.14,479.89z"/>
				<path class="st2" d="M507.66,221.47c-0.91-0.3-2.16-0.49-2.14-1.61c0.02-1.29,1.36-1.15,2.25-1.21c0.9-0.06,2.21-0.22,2.1,1.21
					C509.77,220.94,508.62,221.23,507.66,221.47z"/>
				<path class="st7" d="M213.08,478.36c1.09,0.1,1.8,0.68,2.05,1.75c0.2,0.86,0.14,1.69-0.98,1.75c-1.11,0.06-1.84-0.6-2.08-1.66
					C211.88,479.36,212,478.57,213.08,478.36z"/>
				<path class="st7" d="M212.49,504.43c-1.71,0.32-3.28,1.2-4.38-0.64c-0.24-0.4,0.1-1.71,0.28-1.73
					C210.17,501.84,211.41,502.74,212.49,504.43z"/>
				<path class="st7" d="M760.26,487.94c1.08-1.96,1.81-3.41,3.6-3.57c0.54-0.05,1.24,0.79,0.89,1.43
					C763.88,487.4,762.27,487.48,760.26,487.94z"/>
				<g>
					<g>
						<path class="st6" d="M566.63,184.82c-3,0.14-6.17,4.74-5.97,9.2c0.12,2.65,0.66,5.55,4.22,5.65c2.88,0.08,6.12-5.06,6.05-9.21
							C570.86,187.12,569.03,184.71,566.63,184.82z"/>
						<path class="st6" d="M489.9,175.19c-2.88,0.87-4.82,6.12-3.53,10.39c0.77,2.54,2.01,5.22,5.48,4.44
							c2.81-0.63,4.68-6.41,3.6-10.42C494.58,176.37,492.21,174.49,489.9,175.19z"/>
						<path class="st6" d="M489.67,60.96c-4.4,1.34-7.36,9.35-5.39,15.87c1.17,3.88,3.07,7.97,8.37,6.78
							c4.3-0.97,7.16-9.8,5.5-15.92C496.81,62.77,493.19,59.89,489.67,60.96z"/>
						<path class="st6" d="M415.14,184.94c-3.66,0.46-3.99,3.47-3.97,6.34c0.02,3.95,3.55,8.68,6.31,8.38
							c3.42-0.38,3.73-3.18,3.95-5.48C421.35,189.29,418.13,184.56,415.14,184.94z"/>
						<path class="st6" d="M356.72,214.5c-3.42-3.93-3.38-3.94-5.42-7.01c-2.04-3.08-1.74,4.99-0.31,7.48
							c1.97,3.42,11.43,6.27,9.64,4.14C356.94,214.73,358.71,216.92,356.72,214.5z"/>
						<path class="st6" d="M630.26,208.85c-2.33,2.85-2.3,2.85-6.02,6.47c-2.19,2.23-0.24,0.22-4.28,4.25
							c-1.96,1.96,7.09-0.34,9.41-3.53C631.07,213.72,632.6,205.99,630.26,208.85z"/>
						<path class="st6" d="M592.04,250.16c-2.27,0.13-4.29,1.64-4.1,4.14c0.29,3.79,4.03,2.69,6.23,3.47
							c2.08,0.73,2.61-1.33,2.87-3.43C596.41,251.99,594.92,250,592.04,250.16z"/>
						<path class="st6" d="M389.59,250.08c-2.66,0.28-4.48,2.07-4.49,4.97c-0.01,1.58,0.96,2.36,3.35,1.83
							c1.22-1.42,5.29,0.25,5.62-3.22C394.27,251.54,391.89,249.83,389.59,250.08z"/>
						<path class="st6" d="M440.68,128.31c-0.42-3.55-2.62-5.59-5.67-5.94c-3.74,0.08-7.44,3.53-6.93,6.45
							c0.56,3.25,2.26,5.98,6.09,6.15C437.82,135.13,441.1,131.85,440.68,128.31z"/>
						<path class="st6" d="M444.86,145.02c0.05-3.27-3.1-6.38-6.43-6.34c-3.27,0.04-6.57,3.3-6.23,6.51
							c0.37,3.57,2.53,5.77,6.16,6.07C441.61,151.54,444.81,148.32,444.86,145.02z"/>
						<path class="st6" d="M444.04,155.13c-3.73,0.05-5.84,2.18-6.12,5.81c-0.31,4.06,2.33,6.1,5.84,6.79
							c3.03,0.59,6.36-2.87,6.47-6.19C450.34,158.23,447.42,155.08,444.04,155.13z"/>
						<path class="st6" d="M476.59,115.43c-2.11,0.03-3.31,1.23-3.47,3.28c-0.18,2.3,1.32,3.45,3.3,3.84
							c1.71,0.33,3.6-1.62,3.66-3.5C480.15,117.18,478.5,115.4,476.59,115.43z"/>
						<path class="st6" d="M490.87,120.52c-2.11,0.03-3.31,1.23-3.47,3.28c-0.18,2.3,1.32,3.45,3.3,3.84
							c1.71,0.33,3.6-1.62,3.66-3.5C494.43,122.27,492.78,120.49,490.87,120.52z"/>
						<path class="st6" d="M505.74,115.43c-2.11,0.03-3.31,1.23-3.47,3.28c-0.18,2.3,1.32,3.45,3.3,3.84
							c1.71,0.33,3.6-1.62,3.66-3.5C509.3,117.18,507.65,115.4,505.74,115.43z"/>
						<path class="st6" d="M433.26,118.55c3.95,0.05,6.04-2.66,6.54-6.26c0.42-3.04-3.2-6.33-6.46-6.36
							c-3.24-0.03-6.24,3.17-6.14,7.12C427.71,116.03,429.56,118.51,433.26,118.55z"/>
						<path class="st6" d="M435.3,102.22c3.49,0.36,6.91-2.5,6.98-5.86c0.08-3.7-2.11-5.86-5.51-6.61c-3.13-0.69-6.69,2.31-6.89,5.6
							C429.63,99.36,431.92,101.39,435.3,102.22z"/>
						<path class="st6" d="M547.47,122.35c-3.76,0.36-6.29,2.76-6.22,6.42c0.07,3.62,2.53,5.91,6.31,6.23
							c4.08-0.32,5.99-2.78,6.27-6.44C554.07,125.35,550.67,122.05,547.47,122.35z"/>
						<path class="st6" d="M543.63,138.69c-3.25-0.11-6.73,3.06-6.43,6.25c0.33,3.45,2.17,6.14,5.88,6.3
							c3.9,0.17,6.19-2.19,6.62-6.01C550.08,141.79,547.17,138.81,543.63,138.69z"/>
						<path class="st6" d="M548.51,106.01c-3.65,0.47-6.24,2.51-6.1,6.49c0.13,3.93,2.74,5.73,6.22,6.13c3.42,0,6.54-3.26,6.43-6.46
							C554.95,109.01,551.56,105.62,548.51,106.01z"/>
						<path class="st6" d="M537.31,155.11c-3.24,0.59-5.47,2.59-5.32,6.63c0.14,3.82,2.56,5.7,5.98,6.06
							c2.98,0.31,6.43-3.49,6.38-6.48C544.29,158,541.14,155,537.31,155.11z"/>
						<path class="st6" d="M545.98,102.21c3.46,0.14,6.3-2.85,6.24-6.31c-0.07-3.53-3.06-6.6-6.35-6.17
							c-3.71,0.48-6.24,2.58-6.01,6.57C540.07,99.9,542.28,102.06,545.98,102.21z"/>
					</g>
				</g>
				<path class="st7" d="M573.25,97.92c16.86,6.61,30.71,16.33,40.7,31.24c8.26,12.33,12.57,25.99,13.77,40.63
					c0.32,3.92-0.01,7.23-4.55,10.52c-5.05,3.66-11.05,5.47-15.74,9.57c-2.82,2.46-4.08-0.97-4.41-2.45
					c-1.13-5.03-4.16-8.28-8.53-10.36c-2.04-0.97-1.28-2.43-1.32-3.77c-0.33-11.16-9.97-21.73-21.19-23.05
					c-1.53-0.18-2.61-0.22-2.05-2.25C574.37,131.72,574.14,115.1,573.25,97.92z"/>
				<path class="st7" d="M408.86,98.01c-1.64,16.78-0.65,33.12,2.98,49.27c0.5,2.21-0.06,2.95-2.35,2.97
					c-7.26,0.07-11.56,4.05-15.1,10.24c-2.72,4.77-6.55,8.8-5.5,14.85c0.03,0.16,0.01,0.44-0.07,0.47
					c-6.17,2.81-8.62,8.54-11.49,14.09c-1.07,2.08-2.36-0.17-3.6-0.67c-6.39-2.57-11.3-7.63-17.53-10.37
					c-2.5-1.1-1.92-2.85-1.89-4.5c0.62-26.75,11.25-48.5,32.72-64.71C393.57,104.73,400.67,100.8,408.86,98.01z"/>
				<path class="st6" d="M828.1,632.34c-9.92,5.53-19.05,10.58-28.14,15.7c-2.34,1.31-2.89,0.47-2.75-1.85
					c0.52-8.61,1-17.22,1.48-25.83c0.1-1.72,0.17-3.88,2.64-2.2C809.44,623.69,818.76,626.94,828.1,632.34z"/>
				<path class="st6" d="M184.05,649.66c-10.92-6.13-20.69-11.62-31.14-17.49c10.13-5.18,19.5-9.98,29.39-15.04
					C182.88,627.89,183.43,638.12,184.05,649.66z"/>
				<path class="st1" d="M269.35,331.79c-0.28-10.31,0.27-20.6,0.72-30.9c0.16-3.71,1.55-5.55,5.51-6.22
					c24.55-4.16,49.18-7.94,73.53-13.09c23.88-5.05,47.14-12.48,69.93-21.42c18.9-7.42,36.91-16.63,55.18-25.35
					c3.74-1.78,7.61-3.3,11.4-4.97c3.16-1.39,6.13-0.72,9.17,0.52c12,4.9,23.51,10.84,35.22,16.35
					c23.47,11.05,47.49,20.6,72.49,27.74c19.68,5.62,39.75,9.31,59.78,13.23c13.02,2.55,26.16,4.43,39.25,6.67
					c7.14,1.22,7.08,1.73,7.42,8.92c1,21.33-0.3,42.61-1.27,63.88c-1.24,27.24-2.12,54.54-6,81.56
					c-2.41,16.78-6.68,33.24-10.89,49.67c-4.87,19-11.11,37.58-18.52,55.72c-6.21,15.19-13.56,29.88-21.44,44.28
					c-13.27,24.26-29.58,46.42-47.61,67.29c-14.14,16.36-30.05,30.92-46.52,44.96c-12.68,10.81-25.88,20.79-39.84,29.83
					c-8.14,5.26-16.91,9.19-25.86,12.78c-1.94,0.78-3.87,0.15-5.82-0.53c-11.75-4.1-22.05-10.9-32.04-17.99
					c-15.16-10.77-29.53-22.61-43.53-34.87c-27.96-24.49-51.14-53.05-70.88-84.39c-12.85-20.41-24.26-41.66-32.92-64.25
					c-7.37-19.22-13.34-38.86-18.97-58.68c-9.14-32.12-11.91-64.92-13.61-97.98C272.15,373.6,269.85,352.75,269.35,331.79z"/>
				<path class="st6" d="M704.45,338.88c-0.61,26.75-2.1,57.18-4.56,87.53c-2.04,25.23-7.96,49.82-14.56,74.25
					c-4.78,17.67-10.64,34.95-17.48,51.87c-5.83,14.43-12.76,28.41-20.26,42.07c-17.63,32.08-39.72,60.85-65.43,86.84
					c-14.17,14.32-29.49,27.47-45.43,39.69c-13.79,10.57-28.23,20.55-44.81,26.68c-1.92,0.71-3.47,1.03-5.63,0.27
					c-11.46-3.98-21.41-10.69-31.07-17.63c-16.99-12.21-33.11-25.55-48.64-39.63c-21.96-19.92-40.44-42.72-56.94-67.18
					c-15.93-23.62-29.56-48.55-39.88-75.17c-7.32-18.88-13.05-38.27-18.72-57.72c-11.11-38.11-12.21-77.3-14.83-116.41
					c-1.4-20.92-2.99-41.82-2.84-62.8c0.08-11.46-0.02-11.82,11.1-13.87c20.24-3.74,40.67-6.47,60.82-10.58
					c26.69-5.45,52.6-13.59,78-23.61c21.47-8.47,41.61-19.75,62.8-28.76c2.8-1.19,5.05-0.96,7.58,0.22
					c14,6.56,27.95,13.21,42.03,19.57c21.5,9.72,43.45,18.12,66.25,24.53c24.84,6.99,50.23,10.91,75.47,15.74
					c7.66,1.47,15.37,2.73,23.08,3.91c3.1,0.47,4.42,1.56,4.47,5.06C705.1,314.23,705.27,324.7,704.45,338.88z"/>
				<path class="st1" d="M466.89,200.4"/>
				<path class="st2" d="M504.36,201.55c2.42,1.27-0.32,9.84-3.03,13.78c-1.26,1.83-2.69,2.25-4.66,1.11
					c-4.67-2.69-9.19-3.29-13.84,0.38c-2.13,1.68-4.01,0.83-5.78-1.49c-2.48-3.25-3.06-6.93-3.67-10.7
					c-0.16-0.98-0.13-2.23,1.04-2.49c1.14-0.25,1.72,0.91,2.11,1.77c1.09,2.42,2.04,4.9,3.04,7.36c0.47,1.16,1.13,2.24,2.55,1.71
					c1.41-0.53,0.37-1.68,0.29-2.54c-1.89-8.33-1.19-10.61-0.47-17.33c0.68-6.36,6.07-11.25,9.88-10.08
					c3.74,1.15,5.67,4.7,6.36,9.78c0.73,5.44,0,11.35-2.04,16.14c-0.19,1.3-1.1,3.4,0.78,3.86c1.94,0.48,1.92-1.88,2.55-3.09
					C500.8,207.15,502.39,200.52,504.36,201.55z"/>
				<path class="st7" d="M489.92,228.09c2.15,0.09,3.92-1.77,3.88-3.93c-0.04-2.2-1.9-4.11-3.95-3.84c-2.31,0.3-3.88,1.6-3.74,4.09
					C486.25,226.65,487.62,228,489.92,228.09z"/>
				<path class="st7" d="M530.36,246.36c2.15,0.09,3.92-1.77,3.88-3.93c-0.04-2.2-1.9-4.11-3.95-3.84c-2.31,0.3-3.88,1.6-3.74,4.09
					C526.68,244.92,528.06,246.26,530.36,246.36z"/>
				<path class="st7" d="M449.36,246.36c2.15,0.09,3.92-1.77,3.88-3.93c-0.04-2.2-1.9-4.11-3.95-3.84c-2.31,0.3-3.88,1.6-3.74,4.09
					C445.68,244.92,447.06,246.26,449.36,246.36z"/>
				<path class="st7" d="M572.62,263.83c2.15,0.09,3.92-1.77,3.88-3.93c-0.04-2.2-1.9-4.11-3.95-3.84c-2.31,0.3-3.88,1.6-3.74,4.09
					C568.94,262.39,570.32,263.74,572.62,263.83z"/>
				<path class="st7" d="M408.27,263.83c2.15,0.09,3.92-1.77,3.88-3.93c-0.04-2.2-1.9-4.11-3.95-3.84c-2.31,0.3-3.88,1.6-3.74,4.09
					C404.6,262.39,405.97,263.74,408.27,263.83z"/>
				<path class="st7" d="M618.53,277.92c2.15,0.09,3.92-1.77,3.88-3.93c-0.04-2.2-1.9-4.11-3.95-3.84c-2.31,0.3-3.88,1.6-3.74,4.09
					C614.86,276.48,616.23,277.83,618.53,277.92z"/>
				<path class="st7" d="M363.01,277.92c2.15,0.09,3.92-1.77,3.88-3.93c-0.04-2.2-1.9-4.11-3.95-3.84c-2.31,0.3-3.88,1.6-3.74,4.09
					C359.34,276.48,360.71,277.83,363.01,277.92z"/>
				<path class="st7" d="M665.23,287.83c2.15,0.09,3.92-1.77,3.88-3.93c-0.04-2.2-1.9-4.11-3.95-3.84c-2.31,0.3-3.88,1.6-3.74,4.09
					C661.55,286.39,662.93,287.74,665.23,287.83z"/>
				<path class="st7" d="M314.62,287.83c2.15,0.09,3.92-1.77,3.88-3.93c-0.04-2.2-1.9-4.11-3.95-3.84c-2.31,0.3-3.88,1.6-3.74,4.09
					C310.94,286.39,312.32,287.74,314.62,287.83z"/>
				<path class="st7" d="M711.66,296.7c2.15,0.09,3.92-1.77,3.88-3.93c-0.04-2.2-1.9-4.11-3.95-3.84c-2.31,0.3-3.88,1.6-3.74,4.09
					C707.99,295.26,709.36,296.61,711.66,296.7z"/>
				<path class="st7" d="M267.53,296.7c2.15,0.09,3.92-1.77,3.88-3.93c-0.04-2.2-1.9-4.11-3.95-3.84c-2.31,0.3-3.88,1.6-3.74,4.09
					C263.86,295.26,265.23,296.61,267.53,296.7z"/>
				<path class="st7" d="M265.61,342.58c2.15,0.09,3.92-1.77,3.88-3.93c-0.04-2.2-1.9-4.11-3.95-3.84c-2.31,0.3-3.88,1.6-3.74,4.09
					C261.93,341.14,263.31,342.49,265.61,342.58z"/>
				<path class="st7" d="M712.48,342.58c2.15,0.09,3.92-1.77,3.88-3.93c-0.04-2.2-1.9-4.11-3.95-3.84c-2.31,0.3-3.88,1.6-3.74,4.09
					C708.8,341.14,710.18,342.49,712.48,342.58z"/>
				<path class="st7" d="M269.42,392.67c2.15,0.09,3.92-1.77,3.88-3.93c-0.04-2.2-1.9-4.11-3.95-3.84c-2.31,0.3-3.88,1.6-3.74,4.09
					C265.75,391.23,267.12,392.57,269.42,392.67z"/>
				<path class="st7" d="M710.03,392.67c2.15,0.09,3.92-1.77,3.88-3.93c-0.04-2.2-1.9-4.11-3.95-3.84c-2.31,0.3-3.88,1.6-3.74,4.09
					C706.36,391.23,707.73,392.57,710.03,392.67z"/>
				<path class="st7" d="M272.91,441.9c2.15,0.09,3.92-1.77,3.88-3.93c-0.04-2.2-1.9-4.11-3.95-3.84c-2.31,0.3-3.88,1.6-3.74,4.09
					C269.24,440.46,270.61,441.8,272.91,441.9z"/>
				<path class="st7" d="M706.87,441.9c2.15,0.09,3.92-1.77,3.88-3.93c-0.04-2.2-1.9-4.11-3.95-3.84c-2.31,0.3-3.88,1.6-3.74,4.09
					C703.19,440.46,704.57,441.8,706.87,441.9z"/>
				<path class="st7" d="M281.78,487.55c2.15,0.09,3.92-1.77,3.88-3.93c-0.04-2.2-1.9-4.11-3.95-3.84c-2.31,0.3-3.88,1.6-3.74,4.09
					C278.11,486.11,279.48,487.46,281.78,487.55z"/>
				<path class="st7" d="M697.35,487.55c2.15,0.09,3.92-1.77,3.88-3.93c-0.04-2.2-1.9-4.11-3.95-3.84c-2.31,0.3-3.88,1.6-3.74,4.09
					C693.67,486.11,695.05,487.46,697.35,487.55z"/>
				<path class="st7" d="M295.09,533.98c2.15,0.09,3.92-1.77,3.88-3.93c-0.04-2.2-1.9-4.11-3.95-3.84c-2.31,0.3-3.88,1.6-3.74,4.09
					C291.41,532.54,292.79,533.89,295.09,533.98z"/>
				<path class="st7" d="M684.43,533.98c2.15,0.09,3.92-1.77,3.88-3.93c-0.04-2.2-1.9-4.11-3.95-3.84c-2.31,0.3-3.88,1.6-3.74,4.09
					C680.76,532.54,682.13,533.89,684.43,533.98z"/>
				<path class="st7" d="M315.43,583.81c2.15,0.09,3.92-1.77,3.88-3.93c-0.04-2.2-1.9-4.11-3.95-3.84c-2.31,0.3-3.88,1.6-3.74,4.09
					C311.76,582.37,313.13,583.72,315.43,583.81z"/>
				<path class="st7" d="M664.09,583.81c2.15,0.09,3.92-1.77,3.88-3.93c-0.04-2.2-1.9-4.11-3.95-3.84c-2.31,0.3-3.88,1.6-3.74,4.09
					C660.41,582.37,661.79,583.72,664.09,583.81z"/>
				<path class="st7" d="M341.78,628.68c2.15,0.09,3.92-1.77,3.88-3.93c-0.04-2.2-1.9-4.11-3.95-3.84c-2.31,0.3-3.88,1.6-3.74,4.09
					C338.11,627.24,339.48,628.59,341.78,628.68z"/>
				<path class="st7" d="M638,628.68c2.15,0.09,3.92-1.77,3.88-3.93c-0.04-2.2-1.9-4.11-3.95-3.84c-2.31,0.3-3.88,1.6-3.74,4.09
					C634.32,627.24,635.7,628.59,638,628.68z"/>
				<path class="st7" d="M371.52,668.59c2.15,0.09,3.92-1.77,3.88-3.93c-0.04-2.2-1.9-4.11-3.95-3.84c-2.31,0.3-3.88,1.6-3.74,4.09
					C367.85,667.15,369.22,668.5,371.52,668.59z"/>
				<path class="st7" d="M607.87,668.59c2.15,0.09,3.92-1.77,3.88-3.93c-0.04-2.2-1.9-4.11-3.95-3.84c-2.31,0.3-3.88,1.6-3.74,4.09
					C604.19,667.15,605.57,668.5,607.87,668.59z"/>
				<path class="st7" d="M406.74,705.9c2.15,0.09,3.92-1.77,3.88-3.93c-0.04-2.2-1.9-4.11-3.95-3.84c-2.31,0.3-3.88,1.6-3.74,4.09
					C403.06,704.46,404.44,705.8,406.74,705.9z"/>
				<path class="st7" d="M571.15,705.96c2.15,0.09,3.92-1.77,3.88-3.93c-0.04-2.2-1.9-4.11-3.95-3.84c-2.31,0.3-3.88,1.6-3.74,4.09
					C567.48,704.52,568.85,705.87,571.15,705.96z"/>
				<path class="st7" d="M443.52,736.03c2.15,0.09,3.92-1.77,3.88-3.93c-0.04-2.2-1.9-4.11-3.95-3.84c-2.31,0.3-3.88,1.6-3.74,4.09
					C439.85,734.59,441.22,735.93,443.52,736.03z"/>
				<path class="st7" d="M535.09,736.03c2.15,0.09,3.92-1.77,3.88-3.93c-0.04-2.2-1.9-4.11-3.95-3.84c-2.31,0.3-3.88,1.6-3.74,4.09
					C531.41,734.59,532.79,735.93,535.09,736.03z"/>
				<path class="st7" d="M487.61,762.51c2.15,0.09,3.92-1.77,3.88-3.93c-0.04-2.2-1.9-4.11-3.95-3.84c-2.31,0.3-3.88,1.6-3.74,4.09
					C483.93,761.07,485.31,762.41,487.61,762.51z"/>
			</g>
			<g>
				<g>
					<path class="st0" d="M267.99,767.7c-5.18,8.36-11.19,14.31-17.41,17.92c-7.74,4.48-20.53,3.74-28.09-0.43
						c-8.72-4.82-17.71-12.64-19.36-23.34c-0.87-5.85,0.59-14.52,4.51-25.88c0.94-0.12,3.97-1.98,8.98-5.69
						c5.01-3.71,9.69-5.97,14.08-6.79c6.56-1.28,13.4,0.08,20.8,3.95c5.33,2.79,9.05,5.32,11.15,7.71
						c2.34,2.66,4.29,6.78,5.95,12.39c0.74,2.5,0.76,5.85,0.06,10.07C267.88,762.36,267.67,765.74,267.99,767.7z M248.19,761.8
						c-0.13-1.87,0.33-3.95,1.37-6.25c-0.78,1.76,0.19-0.14,2.9-5.7c1.45-2.97,1.98-5.99,1.67-9.03c-0.38-3.72-2.08-6.38-5.21-8.02
						c-3.97-2.07-8.27-1.11-13.04,2.91c-3.29,2.77-6.22,6.37-8.72,10.82c-0.91,1.63-0.63,3.77-0.73,4.86
						c-0.28,3.28-4.48,9.25-6.24,13.76c-2.5,6.42-1.24,11.48,3.19,13.81c4.01,2.11,7.76,2.02,11.14-0.16
						c2.22-1.44,4.74-4.34,7.52-8.65C245.04,765.53,247.09,762.73,248.19,761.8z"/>
					<path class="st0" d="M358.56,840.95c-0.38,1.14-1.71,1.8-3.96,1.9c-1.83,0.08-3.6-0.19-5.23-0.77
						c-2.34-0.83-5.8-2.56-10.28-5.26c-4.48-2.71-7.8-4.56-10.02-5.47c-1.46-0.6-3.65-0.79-6.6-0.62c-2.95,0.17-5.03-0.02-6.21-0.54
						c-1.67-0.74-2.69-2.19-3.04-4.32c0.87-1.91,3.22-2.88,7.01-2.98c4.2-0.11,7.35-0.94,8.06-2.11c0.96-1.6,1.69-4.46,2.44-6.59
						c1.22-3.47,1.29-5.61,0.44-5.98c-1.32-0.57-3.29,0-5.97,1.67c-2.68,1.67-4.57,2.25-5.63,1.76c-0.53-0.24-1.03-0.57-1.48-0.97
						c-0.46-2.85-0.78-4.63-1.01-5.33c-0.56-2.05-1.39-3.74-2.49-5.07c-1.3,0.71-2.73,1.99-4.27,3.84
						c-1.77,2.13-3.11,3.53-3.99,4.16c-0.19,1.38-0.34,2.81-0.49,4.27c-0.17,1.71,0.06,3.1,0.72,4.15c0.19,0.29,1.43,1.26,3.59,2.9
						c1.51,1.14,2.04,2.28,1.57,3.31c-0.98,2.12-3.54,2.2-7.57,0.12c-1.55-0.8-3.7-2.2-6.43-4.21c-2.73-2.01-4.92-3.46-6.6-4.34
						c-1.95-1.02-4.56-1.79-7.86-2.36c-3.3-0.57-5.55-1.22-6.75-1.9c-1.54-0.87-2.34-2.17-2.41-3.88c0.93-1.62,4.36-3.07,7.84-2.52
						c4.17,0.65,10.02,1.26,14.15-1.48c3.51-2.33,7.15-5.39,10.71-8.12c-0.1-0.59-0.47-1.05-1.1-1.38
						c-1.14-0.59-2.49-0.44-4.04,0.44c-1.56,0.88-2.79,1.07-3.68,0.6c-1.47-0.78-2.4-1.49-2.8-2.12c-0.53-0.84-0.48-1.84,0.16-3
						c1.36-2.48,4.16-3.52,7.67-2.73c2.87,0.64,6.04,1.64,9.13,2.38c0.06,0.03,1.52-0.09,2.9-0.87c2.01-1.14,4.31-3.81,6.39-5.7
						c2.52-2.3,4.42-4.44,5.59-6.42c-0.16-1.21-1.82-3.04-4.9-5.52c-2.71-2.17-3.66-4.06-2.86-5.6c1.35-2.62,3.31-3.26,5.88-1.96
						c0.82,0.41,1.69,1.16,2.31,2.19c0.51,0.84,1.01,1.87,1.58,2.83c1.83,0.89,4.53,2.31,8.12,4.18c3.59,1.88,6.3,3.17,8.11,3.95
						c4.04,1.74,8.5,3.61,10.55,3.29c1.48-0.23,3.92-1.07,5.98-0.28c1.82,0.69,2.42,1.87,1.79,3.56c-0.69,1.86-2.79,2.94-6.33,3.19
						c-3.54,0.24-5.7,1.27-6.46,3.17c-0.31,0.78-0.59,3.33-0.74,7.65c-0.1,2.86-0.87,7.07-0.21,8.52c0.68,1.51,4.52,3.72,6.64,5.56
						c2.83,2.47,3.95,4.91,3.26,6.9c-0.24,0.68-0.78,1.27-1.64,1.76c-0.85,0.49-1.72,0.58-2.59,0.27c-1.21-0.43-2.2-1.38-2.97-2.8
						c-0.98-1.83-1.77-2.99-2.35-3.47c-0.47,0.17-0.71,0.25-1.18,0.42c-0.23,7.81-0.09,12.55,0.23,14.21
						c0.94,4.88,3.86,9.07,8.78,12.42C358.52,840.11,358.71,840.49,358.56,840.95z M332.91,800.92c0.64-1.49,1.2-5.01,1.76-10.53
						c0.56-5.52,0.67-8.86,0.24-10.04c-2.41,1.41-5.03,3.57-7.87,6.39c-2.35,2.34-4.78,4.66-7.2,6.96c0.64,1.44,1.28,2.92,1.96,4.3
						c0.81,1.64,1.82,2.92,2.83,3.78c1.2,0.28,3.02-0.01,4.52,0.05C330.89,801.9,332.46,801.97,332.91,800.92z"/>
					<path class="st0" d="M432.96,867.97c-0.49,2.71-2.5,4.63-5.92,5.76c-3.05,1.01-6.44,1.22-10.04,0.45
						c-5.7-1.21-9.8-3.99-12.27-7.97c-2.3-3.71-2.95-7.78-1.83-12.15c0.27-1.05,0.64-2.07,1.12-3.06c-0.8-1.32-1.01-2.71-0.63-4.16
						c0.26-0.99,0.94-2.31,2.04-3.98c1.1-1.67,1.76-2.97,2-3.9c0.59-2.32,0.2-4.28-1.13-5.87c-0.55-0.7-2.16-1.86-4.63-3.56
						c-2.13-1.46-3.53-3.01-4.21-4.45c-0.58,0.36-0.87,0.54-1.46,0.89c-0.13,0.3-0.2,0.45-0.33,0.75c-0.35,1.21-0.7,3.16-1.03,5.84
						c-0.33,2.68-0.72,4.68-1.16,5.99c0.35,0.6,0.48,1.56,0.43,2.84c-0.07,1.78-0.07,2.79-0.05,2.98c0.18,1.8,1.56,3.43,4.13,4.87
						c2.31,1.3,3.33,2.56,3.01,3.77c-0.35,1.34-1.83,2.02-4.36,2.11c-1.93,0.07-4.06-0.17-6.28-0.8c-2.23-0.63-5.39-1.96-9.43-4.05
						c-4.04-2.09-7.17-3.54-9.43-4.3c-1.13-0.38-2.83-0.34-5.11,0.07c-2.28,0.42-4.03,0.4-5.24-0.02c-0.71-0.25-1.37-0.8-1.99-1.62
						c-0.62-0.83-0.83-1.5-0.64-2.01c0.81-2.2,2.21-3.53,4.19-4.03c0.02-0.06,1.9-0.23,5.6-0.6c2.26-0.23,3.95-1.02,5.09-2.35
						c2.3-2.71,5-8.83,8.16-18.34c0.83-2.51,1.87-5.8,3.12-9.87c1.25-4.07,2.07-6.69,2.46-7.86c0.39-1.17-0.09-3.06-1.37-5.69
						c-1.29-2.63-1.74-4.4-1.43-5.3c0.2-0.57,0.85-1.1,1.95-1.61c1.1-0.51,1.92-0.67,2.47-0.49c0.97,0.33,1.8,1,2.48,2.02
						c0.68,1.02,1.32,1.97,1.92,2.85c1.62,0.46,4.67,1.17,9.13,1.99c3.83,0.71,6.83,1.32,9.01,1.91c6.09,1.66,10.49,4.05,13.25,7.34
						c1.98,2.37,4.02,6.77,6.29,13.19c-2.8,6.83-7.54,11.68-14.32,14.32c-0.05,0.79,0.86,1.98,2.74,3.5
						c2.23,1.81,3.79,3.49,4.61,5.08c1.43,2.76,1.75,6.2,0.89,10.31c-0.39,1.88-1.34,4.66-2.86,8.32c-1.52,3.67-2.5,6.43-2.9,8.31
						c-0.31,1.47,0.13,2.33,1.34,2.58c0.28,0.06,0.54,0.08,0.76,0.07c0.07-0.32,0.1-0.48,0.16-0.79c0.12-1.32,0.99-2.43,2.58-3.33
						c1.59-0.9,3.22-1.19,4.91-0.87C432.03,863.69,433.44,865.31,432.96,867.97z M412,816.35c1.19-4.65,1.61-8.04,1.28-10.17
						c-0.11-0.9-0.65-1.84-1.6-2.84c-0.96-1-1.9-1.63-2.85-1.89c-1.39-0.38-2.51-0.26-3.37,0.37c-0.53,0.41-1.46,2.09-2.65,4.95
						c-0.99,2.37-1.64,4.24-2,5.51c-0.7,2.42-1.09,4.9-1.17,7.43c0.84,0.05,1.66,0.19,2.46,0.41c2.85,0.79,4.35,2.09,4.51,3.93
						C409.21,822.83,411,820.25,412,816.35z"/>
					<path class="st0" d="M535.79,870.03c0.1,0.89-0.85,1.79-2.86,2.65c-1.65,0.71-3.18,1.12-4.59,1.25
						c-7.2,0.65-12.46-0.6-15.64-3.55c-2.8-2.6-4.31-6.96-4.6-13.01c-0.04-0.84-0.03-2.13,0.03-3.87c0.06-1.74,0.06-3.07,0.02-3.97
						c-0.11-2.28-0.55-4.18-1.32-5.7c1.97-3.93,2.8-7.95,2.58-12.02c-0.15-2.88-0.83-5.5-2.01-7.83c-1.51-2.98-3.62-4.42-6.29-4.33
						c-2.94,0.1-4.29,5.23-4.05,15.42c0.19,8.04,0.51,13.72,0.93,16.99c1,7.86,2.92,13.04,5.86,15.4c0.3,0.23,1.75,0.78,4.36,1.62
						c1.71,0.52,2.62,1.58,2.7,3.2c0.03,0.66-0.74,1.39-2.34,2.19c-1.6,0.79-2.85,1.21-3.74,1.24c-2.23,0.09-5.64-0.14-10.18-0.76
						c-4.54-0.62-7.95-0.97-10.25-0.99c-5.19-0.03-9.46,0.87-12.89,2.79c-2.01-0.19-3.34-0.46-4-0.79c-1.1-0.53-1.61-1.49-1.54-2.87
						c0.11-2.28,2.08-3.98,5.85-5.17c4.07-1.29,6.28-2.71,6.67-4.14c1.09-3.94,1.74-9.07,1.99-15.38c0,0.12,0.01-5.08,0.05-15.59
						c0.06-3.68,0.09-5.52,0.15-9.2c0.02-0.9-0.25-1.76-0.8-2.58s-1.31-1.24-2.3-1.27c-2.5-0.06-4.57,1.46-6.22,4.58
						c-1.3,2.47-2.02,5-2.14,7.58c-0.18,4.02,0.66,8.03,2.59,12.01c-0.76,1.78-1.24,4.01-1.41,6.71c0.09-2.16,0,0.12-0.27,6.85
						c-0.21,5.22-1.71,9.47-4.59,12.7c-3.35,3.75-8.14,5.45-14.24,4.96c-3.94-0.31-6.8-1.16-8.54-2.38
						c-1.51-1.06-3.26-3.22-5.11-6.51c0.87-1.83,1.55-3,2.04-3.49c0.98-0.98,2.37-1.38,4.18-1.2c2.16,0.21,3.56,0.91,4.18,2.11
						c0.31,0.57,0.38,1.7,0.38,3.19c0,1.1,0.4,1.75,1.06,1.81c2.13,0.18,3.31-1.33,3.56-4.5c0.19-2.51-0.57-6.13-2.2-10.88
						c-1.63-4.74-2.29-8.35-2.06-10.8c0.93-10.1,5.9-17.65,13.93-23.12c7.35-5.01,18.87-7.66,27.56-7.53
						c9.81,0.15,18.41,1.95,25.35,6.39c7.46,4.78,11.86,11.68,12.76,20.87c0.25,2.57-0.14,6.41-1.27,11.51
						c-1.13,5.11-1.61,8.97-1.39,11.6c0.23,2.69,0.92,4.29,2.07,4.79c0.39,0.21,1.6,0.3,3.56,0.21c1.6-0.08,2.85,0.41,3.71,1.52
						C535.52,869.3,535.76,869.73,535.79,870.03z"/>
					<path class="st0" d="M615.31,856.43c0.37,0.95,0.13,2.12-0.72,3.51c-0.86,1.39-1.9,2.32-3.12,2.77
						c-2.94,1.1-5.56,1.19-7.83,0.28c-1.42-0.58-3.13-1.91-5.12-3.92c-2.18-2.22-3.92-3.66-5.16-4.32
						c-3.19,4.44-8.33,7.73-15.06,9.8c-9.3,2.87-20.02,2.46-27.89-3.93c-4.61-3.66-9.45-10.73-14.37-21.22
						c1.32-2.73,2.86-7.92,4.47-15.47c1.2-5.63,2.92-9.79,5.19-12.47c3.24-3.86,8.74-6.82,16.55-9.2c4.86-1.48,9.38-1.89,13.67-1.2
						c0.65-1.11,1.28-2.26,1.93-3.33c0.83-1.38,1.77-2.25,2.67-2.57c0.66-0.24,1.54,0.02,2.64,0.76c0.14,3.02,0.22,6.12,0.4,9.14
						c0.18,3.17,0.84,6.2,1.8,8.91c0.18,0.51-0.05,1.16-0.7,1.97c-0.65,0.8-1.3,1.31-1.94,1.53c-1.15,0.4-2.51-0.5-4.02-2.69
						c-2.1-3.05-3.73-5.04-4.92-5.91c-2.5-1.88-5.55-2.23-9.24-1.1c-4.87,1.49-7.78,4.41-8.81,8.91c-0.61,2.77-0.41,6.95,0.61,12.55
						c0.51,0.16,0.76,0.24,1.28,0.4c-0.64,0.24,2.38-0.5,9.01-2.46c2.49-0.74,4.38-1.7,5.67-2.85c0.72-0.66,1.38-1.63,1.98-2.89
						c0.43-0.89,0.9-1.42,1.41-1.59c1.35-0.44,2.48,0.04,3.38,1.45c-0.02,3.17,0.27,5.7,1.02,7.34c0.19,0.43,0.8,1.24,1.77,2.35
						c0.81,0.93,1.31,1.77,1.38,2.48c0.11,1.08,0.28,2.29,0.29,3.22c0.01,1.12-0.85,2.08-2.2,2.52c-1.29,0.42-2.64-0.04-4.06-1.35
						c-1.41-1.31-2.68-1.89-3.81-1.74c-1.41,0.19-4,0.85-7.77,1.93c-2.63,0.75-4.58,1.85-5.85,3.31c2.34,5.96,4.29,9.97,5.84,12.03
						c3.45,4.59,7.72,6.17,12.66,4.68c3.82-1.15,6.48-3.67,7.93-7.49c0.52-1.24,1.12-4.54,1.78-9.79c0.42-3.36,1.4-5.26,2.92-5.67
						c2.4-0.65,4.98,2.82,7.73,10.44c0.96,2.65,2.35,4.91,4.09,6.75c2.35,2.48,4.85,3.31,7.45,2.32c0.84-0.32,1.83-0.27,2.97,0.16
						C614.35,855.22,615.05,855.76,615.31,856.43z"/>
					<path class="st0" d="M651.94,833.01c0.97,2.52-1.49,4.96-7.46,7.12c-2.49,0.9-6.33,1.94-11.52,3.01
						c-5.19,1.07-9.04,1.93-11.55,2.7c-1.29,0.39-2.66,1.48-4.14,3.26c-1.48,1.78-2.85,2.84-4.08,3.19
						c-1.02,0.29-2.07,0.37-3.09,0.3c-1.32-0.09-2.11-0.45-2.3-1.15c-0.56-2.09-0.12-4.03,1.3-5.86c0.28-0.39,1.74-1.81,4.32-4.31
						c1.75-1.63,2.64-3.15,2.68-4.54c0.12-3.67-1.04-9.62-3.47-17.85c0.72,2.37,1.4,4.75,2.04,7.13
						c-2.69-8.35-5.18-16.77-7.73-25.16c-0.68-2.24-1.77-3.76-3.25-4.57c-0.5-0.29-1.72-0.67-3.65-1.18
						c-1.31-0.25-2.09-0.84-2.35-1.76c-0.46-1.61,1.22-2.95,5.02-4.1c1.37-0.41,3.36-0.88,5.95-1.42c2.6-0.54,4.14-0.92,4.64-1.08
						c1.55-0.51,3.57-1.68,6.03-3.53c2.46-1.85,4.31-3.02,5.59-3.5c2.13-0.79,3.51-0.38,4.12,1.24c0.17,0.45-0.69,2.53-2.68,6.24
						c-2,3.7-2.74,6.42-2.12,8.17c5.97,16.92,8.12,23.13,6.46,18.62c3.01,8.1,5.85,13.78,8.58,17.01c1.08,1.27,3.4,1.8,6.96,1.53
						C649.8,832.26,651.7,832.39,651.94,833.01z"/>
					<path class="st0" d="M726.12,801.71c1.43,2.36,1.14,5.16-0.77,8.32c-1.7,2.82-4.19,5.27-7.49,7.12
						c-5.23,2.94-10.24,3.61-14.79,2.29c-4.24-1.24-7.45-3.85-9.49-7.87c-0.49-0.96-0.88-1.98-1.17-3.04
						c-1.49-0.45-2.58-1.35-3.25-2.69c-0.46-0.91-0.82-2.36-1.08-4.35s-0.62-3.41-1.06-4.26c-1.09-2.14-2.69-3.34-4.77-3.63
						c-0.89-0.16-2.9,0.05-5.93,0.42c-2.61,0.32-4.71,0.1-6.19-0.53c-0.21,0.66-0.31,0.98-0.53,1.64c0.1,0.31,0.15,0.47,0.25,0.78
						c0.53,1.14,1.56,2.83,3.09,5.06c1.53,2.23,2.56,3.99,3.08,5.27c0.67,0.22,1.4,0.85,2.21,1.84c1.12,1.38,1.8,2.14,1.94,2.27
						c1.33,1.23,3.47,1.53,6.41,0.9c2.64-0.57,4.26-0.31,4.82,0.82c0.62,1.23-0.07,2.74-1.96,4.49c-1.44,1.34-3.23,2.58-5.36,3.59
						c-2.13,1.01-5.44,2.12-9.92,3.23c-4.48,1.12-7.82,2.1-10.05,3.03c-1.11,0.47-2.38,1.62-3.84,3.44c-1.46,1.83-2.8,2.97-4,3.45
						c-0.71,0.28-1.57,0.31-2.58,0.09c-1.02-0.22-1.62-0.58-1.81-1.08c-0.84-2.18-0.66-4.12,0.52-5.8
						c-0.02-0.06,1.29-1.43,3.86-4.15c1.56-1.67,2.33-3.39,2.32-5.14c-0.04-3.55-2.03-9.95-5.92-19.18
						c-1.02-2.43-2.41-5.59-4.16-9.48c-1.75-3.89-2.86-6.4-3.33-7.53c-0.48-1.13-2.09-2.24-4.81-3.36
						c-2.72-1.12-4.24-2.15-4.59-3.04c-0.22-0.56-0.08-1.39,0.42-2.5s1.02-1.77,1.56-2c0.96-0.4,2.03-0.44,3.23-0.13
						c1.19,0.31,2.31,0.6,3.35,0.87c1.54-0.73,4.34-2.22,8.31-4.57c3.4-2.02,6.12-3.56,8.19-4.57c5.78-2.82,10.77-3.98,15.1-3.38
						c3.11,0.44,7.61,2.36,13.65,5.63c2.38,7,1.93,13.82-1.55,20.36c0.49,0.62,1.98,0.91,4.44,0.78c2.93-0.15,5.26,0.06,6.95,0.7
						c2.95,1.1,5.48,3.46,7.55,7.11c0.95,1.67,2.06,4.38,3.32,8.15c1.26,3.77,2.34,6.5,3.28,8.17c0.73,1.31,1.65,1.65,2.76,1.03
						c0.26-0.15,0.47-0.3,0.64-0.47c-0.16-0.28-0.24-0.42-0.4-0.7c-0.79-1.07-0.85-2.48-0.22-4.23c0.64-1.75,1.71-3.07,3.24-3.97
						C722.54,799.15,724.72,799.4,726.12,801.71z M675.52,777.23c-2.17-4.28-4.1-7.1-5.77-8.48c-0.68-0.6-1.72-0.95-3.12-1.06
						c-1.4-0.11-2.55,0.05-3.45,0.49c-1.32,0.64-2.1,1.48-2.35,2.53c-0.13,0.66,0.27,2.54,1.25,5.48c0.81,2.43,1.56,4.27,2.12,5.47
						c1.07,2.28,2.41,4.4,4.04,6.36c0.68-0.52,1.4-0.97,2.16-1.33c2.71-1.31,4.73-1.34,6.08-0.07
						C677.68,783.95,677.34,780.82,675.52,777.23z"/>
					<path class="st0" d="M765.34,741.32c3.71,9.12,5.13,17.38,4.13,24.72c-1.37,10.04-8.25,18.2-17.05,22.65
						c-9.07,4.59-20.48,6.92-30.01,1.9c-5.18-2.75-11.27-9.04-18.12-18.91c0.44-0.82,0.66-4.35,0.55-10.57
						c-0.12-6.21,0.74-11.31,2.59-15.33c2.74-6.04,7.77-10.75,15.25-14.48c5.38-2.68,9.65-4.24,12.85-4.56
						c3.56-0.35,8.09,0.45,13.67,2.35c2.49,0.85,5.25,2.78,8.27,5.8C760.91,738.31,763.54,740.44,765.34,741.32z M748.62,754.11
						c-1.6-0.98-3.02-2.58-4.27-4.77c0.97,1.67,0-0.24-2.91-5.7c-1.55-2.92-3.7-5.11-6.35-6.64c-3.24-1.87-6.42-2.04-9.57-0.47
						c-4.01,2-5.73,6.04-5.26,12.26c0.33,4.29,1.53,8.77,3.67,13.41c0.78,1.69,2.67,2.73,3.49,3.45c2.49,2.17,4.85,9.05,7.47,13.13
						c3.73,5.79,8.54,7.75,13.02,5.53c4.06-2.01,6.2-5.12,6.43-9.14c0.15-2.65-0.72-6.4-2.57-11.18
						C749.78,758.85,748.73,755.55,748.62,754.11z"/>
				</g>
			</g>
			<polygon class="st6" points="401.98,433.31 433.67,417.39 438.11,421.31 424.41,426.52 426.37,430.31 405.63,439.18 			"/>
			<polygon class="st6" points="423.83,425.25 431.75,431.51 448.48,430.63 446.72,446.38 453.86,455.97 452.39,445.6 
				464.91,437.48 467.65,455.28 486.92,466.83 480.96,451.96 490.05,441.69 497.2,454.11 528.7,454.01 529.38,460.57 495.63,460.37 
				488.1,452.94 485.65,455.38 494.75,471.43 491.33,475.04 462.08,457.53 461.2,446.77 457.87,449.81 457.09,463.6 440.55,449.81 
				442.9,437.97 430.58,437.28 421.67,427.11 			"/>
			<path class="st6" d="M822.37,392.87"/>
			<polygon class="st6" points="534.47,437.38 528.4,403.53 548.36,404.61 536.42,428.19 			"/>
			<path class="st6" d="M813.37,337.31"/>
			<path class="st6" d="M485.83,410.76l10.52-6.61l-2.09-13.57l-11.93,2.15l-6.07,11.35L453.04,384l-2.22,5.02l6.2,10.04
				c0,0,15.07,6.39,16.7,6.98C475.35,406.63,485.83,410.76,485.83,410.76z"/>
			<g>
				<path class="st2" d="M399.57,338.87"/>
				<g>
					<polygon class="st11" points="444.76,400.31 425.68,406.18 432.73,411.07 418.05,417.82 413.26,394.63 401.91,383.87 
						389.98,383.28 373.15,376.44 375.5,356.87 380,367.63 388.8,372.33 393.7,370.76 398.2,362.15 390.17,348.07 390.17,340.24 
						378.04,330.26 391.74,331.04 399.57,338.87 403.28,331.24 399.76,317.15 412.48,329.09 411.3,338.28 415.61,334.37 
						416.59,321.85 424.02,338.68 415.8,348.26 410.72,360.98 425.72,383.09 					"/>
					<path class="st2" d="M391.74,331.04c0,0-2.25,9.29-1.57,9.2c0.68-0.1,9.39-1.37,9.39-1.37L391.74,331.04z"/>
					<polygon class="st2" points="403.28,331.24 412.48,329.09 399.76,317.15 					"/>
					<polygon class="st2" points="415.61,334.37 424.02,338.68 415.8,348.26 411.3,338.28 					"/>
					<polygon class="st2" points="390.17,348.07 411.3,338.28 410.72,360.98 					"/>
					<polygon class="st2" points="398.2,362.15 410.72,360.98 401.91,383.87 393.7,370.76 					"/>
					<polygon class="st2" points="380,367.63 373.15,376.44 375.5,356.87 					"/>
					<polygon class="st2" points="389.98,383.28 380,367.63 388.8,372.33 					"/>
					<polyline class="st2" points="401.91,383.87 425.72,383.09 413.26,394.63 401.91,383.87 					"/>
					<path class="st2" d="M425.68,406.18c-0.29-0.49-12.42-11.54-12.42-11.54l4.79,23.18L425.68,406.18z"/>
					<path class="st2" d="M425.72,383.09c0,0-1.11,23.67-0.03,23.09c1.08-0.59,19.08-5.87,19.08-5.87L425.72,383.09z"/>
				</g>
				<polygon class="st2" points="492.89,373.31 466.28,367.63 487.22,384.85 				"/>
				<path class="st2" d="M499.35,334.37"/>
				<g>
					<path class="st11" d="M460.8,335.54c0.39-0.16,21.52-5.87,21.52-5.87l17.02,4.7l14.87-9.39l21.91,11.93l24.26,0.39
						l-16.04,12.13l23.87,8.61l-26.02,7.24l16.24,20.35l-18.2,0.98l4.5,29.54l-20.15-6.46l3.72,11.93l-8.22,3.33l16.24,10.57
						l-21.52,1.96l-14.87-12.72l-7.04,10.37l7.04,15.07l-21.91-11.93l-1.57-18.98l-10.96,8.8l0.59,11.74l-8.61-11.15l2.35-16.24
						L444.37,414l-11.54-6.65l16.43-4.5l18.59-12.13l30.33,2.35l10.76-7.43l-3.91-14.09l-12.13,1.76l-5.67,11.54l-20.93-17.22
						L460.8,335.54z"/>
					<polygon class="st2" points="466.28,367.63 482.33,329.68 460.8,335.54 					"/>
					<polygon class="st2" points="505.02,371.54 482.33,329.68 492.89,373.31 					"/>
					<path class="st2" d="M499.35,334.37c0.85-0.07,36.78,2.54,36.78,2.54l-21.91-11.93L499.35,334.37z"/>
					<path class="st2" d="M544.35,349.44c-0.2-0.68-8.22-12.52-8.22-12.52l24.26,0.39L544.35,349.44z"/>
					<polygon class="st2" points="542.2,365.28 544.35,349.44 568.22,358.04 					"/>
					<polygon class="st2" points="540.24,386.61 542.2,365.28 558.43,385.63 					"/>
					<polygon class="st2" points="524.59,409.7 540.24,386.61 544.74,416.15 					"/>
					<polygon class="st2" points="520.09,424.96 524.59,409.7 528.3,421.63 					"/>
					<polygon class="st2" points="514.8,437.48 520.09,424.96 536.33,435.52 					"/>
					<polygon class="st2" points="499.93,450.2 478.02,438.26 492.89,435.13 					"/>
					<path class="st2" d="M465.5,428.09l-8.02,0.59c0,0,9.2,11.74,8.61,11.15C465.5,439.24,465.5,428.09,465.5,428.09z"/>
					<path class="st2" d="M444.37,414c-0.2-0.78,4.89-11.15,4.89-11.15l-16.43,4.5L444.37,414z"/>
					<polygon class="st2" points="476.46,419.28 492.89,435.13 499.93,424.76 					"/>
					<polygon class="st2" points="498.17,393.07 499.93,424.76 524.59,409.7 					"/>
					<polygon class="st2" points="498.17,393.07 476.46,419.28 459.83,412.44 467.85,390.72 					"/>
					<polygon class="st2" points="508.93,385.63 540.24,386.61 542.2,365.28 505.02,371.54 					"/>
					<polygon class="st2" points="499.35,334.37 505.02,371.54 544.35,349.44 					"/>
				</g>
				<path class="st2" d="M550.8,418.31"/>
				<g>
					<polygon class="st11" points="436.74,413.22 408.76,426.91 388.02,425.54 381.37,410.28 373.74,404.22 361.61,406.18 
						371.98,411.07 373.35,416.94 362.59,414.78 353.2,420.85 365.52,421.63 368.85,425.94 358.09,432.2 356.52,443.15 
						365.91,435.33 379.8,435.72 388.41,443.74 390.17,453.13 382.74,458.02 374.13,455.48 387.83,463.89 400.93,457.24 
						408.37,445.5 427.54,441.39 444.96,444.33 448.87,462.52 460.61,477.78 523.41,498.72 515,513.98 507.37,535.7 514.41,553.7 
						536.52,565.63 511.48,588.13 496.61,590.09 486.43,595.37 480.57,602.81 485.85,614.94 487.61,603.78 495.24,601.24 
						491.33,611.02 499.74,619.83 499.93,611.22 505.8,604.18 504.83,615.91 512.46,622.37 513.04,610.24 520.87,601.24 
						530.65,603.78 534.57,612.39 537.89,600.85 531.24,592.83 525.37,590.48 559.41,567.59 562.93,561.91 556.28,556.44 
						542.2,551.15 539.65,539.02 565.67,523.57 580.93,531.2 600.89,527.68 615.17,513.78 617.13,499.89 612.43,480.91 
						600.11,449.02 599.33,429.26 609.7,410.28 612.83,396.59 610.67,383.09 600.3,372.52 586.41,370.37 567.43,378.98 
						555.89,394.83 549.83,409.31 550.8,418.31 555.7,428.09 559.22,414.59 562.74,432 573.3,442.37 573.11,426.91 579.24,418.31 
						576.24,428.87 583.87,423.2 584.07,411.07 580.54,398.35 577.8,386.41 583.87,382.31 595.22,382.7 603.24,393.65 
						601.09,403.63 591.89,419.09 587.98,436.89 590.33,457.24 598.54,477 605.2,492.85 601.87,508.31 592.87,513.98 581.91,508.7 
						576.24,496.96 578.98,488.64 568.22,471.52 537.5,453.33 526.93,440.94 515.59,442.18 501.3,431.61 498.17,437.09 
						508.54,457.44 474.3,440.81 473.33,428.09 470.2,431.41 472.15,452.15 452.39,428.87 454.74,417.13 444.76,417.52 					"/>
					<polygon class="st2" points="373.74,404.22 371.98,411.07 361.61,406.18 					"/>
					<polygon class="st2" points="362.59,414.78 365.52,421.63 373.35,416.94 					"/>
					<polygon class="st2" points="368.85,425.94 365.91,435.33 379.8,435.72 					"/>
					<polygon class="st2" points="358.09,432.2 365.91,435.33 356.52,443.15 					"/>
					<polygon class="st2" points="379.8,435.72 373.35,416.94 388.02,425.54 					"/>
					<polygon class="st2" points="388.41,443.74 408.76,426.91 408.37,445.5 					"/>
					<polygon class="st2" points="390.17,453.13 400.93,457.24 387.83,463.89 382.74,458.02 					"/>
					<polygon class="st2" points="427.54,441.39 436.74,413.22 444.76,417.52 444.96,444.33 					"/>
					<polygon class="st2" points="452.39,428.87 448.87,462.52 460.61,477.78 472.15,452.15 					"/>
					<polygon class="st2" points="474.3,440.81 470.2,431.41 473.33,428.09 					"/>
					<polygon class="st2" points="508.54,457.44 460.61,477.78 523.41,498.72 					"/>
					<polygon class="st2" points="472.15,452.15 508.54,457.44 474.3,440.81 					"/>
					<polygon class="st2" points="498.17,437.09 515.59,442.18 508.54,457.44 					"/>
					<polygon class="st2" points="537.5,453.33 515.59,442.18 526.93,440.94 					"/>
					<polygon class="st2" points="523.41,498.72 537.5,453.33 568.22,471.52 565.67,523.57 					"/>
					<polygon class="st2" points="568.22,471.52 576.24,496.96 578.98,488.64 					"/>
					<polygon class="st2" points="581.91,508.7 580.93,531.2 600.89,527.68 592.87,513.98 					"/>
					<polygon class="st2" points="601.87,508.31 615.17,513.78 617.13,499.89 605.2,492.85 					"/>
					<polygon class="st2" points="612.43,480.91 590.33,457.24 587.98,436.89 600.11,449.02 					"/>
					<polygon class="st2" points="591.89,419.09 609.7,410.28 599.33,429.26 					"/>
					<polygon class="st2" points="603.24,393.65 609.7,410.28 612.83,396.59 					"/>
					<polygon class="st2" points="595.22,382.7 600.3,372.52 586.41,370.37 583.87,382.31 					"/>
					<polygon class="st2" points="577.8,386.41 567.43,378.98 555.89,394.83 					"/>
					<polygon class="st2" points="584.07,411.07 555.89,394.83 549.83,409.31 559.22,414.59 					"/>
					<polygon class="st2" points="573.11,426.91 562.74,432 573.3,442.37 					"/>
					<polygon class="st2" points="576.24,428.87 579.24,418.31 583.87,423.2 					"/>
					<polygon class="st2" points="579.24,418.31 559.22,414.59 573.11,426.91 					"/>
					<polygon class="st2" points="539.65,539.02 515,513.98 507.37,535.7 514.41,553.7 					"/>
					<polygon class="st2" points="542.2,551.15 536.52,565.63 556.28,556.44 					"/>
					<polygon class="st2" points="559.41,567.59 525.37,590.48 536.52,565.63 					"/>
					<polygon class="st2" points="511.48,588.13 520.87,601.24 495.24,601.24 					"/>
					<polygon class="st2" points="531.24,592.83 520.87,601.24 537.89,600.85 					"/>
					<polygon class="st2" points="496.61,590.09 487.61,603.78 480.57,602.81 486.43,595.37 					"/>
					<polygon class="st2" points="491.33,611.02 499.93,611.22 499.74,619.83 					"/>
					<polygon class="st2" points="504.83,615.91 513.04,610.24 505.8,604.18 					"/>
					<polygon class="st2" points="530.65,603.78 537.89,600.85 534.57,612.39 					"/>
				</g>
				<g>
					<path class="st11" d="M460.93,482.61l56.09,19.04l-6.13,10.96l-6,15.52l-19.24-2.61l-13.11-6.26l-10.17,6.65l-7.24,21.91
						l-25.04-4.5l-16.43,2.35l-6.26,11.93l-12.72,3.52l-10.37-6.65l15.26-1.96l3.33-8.22l-8.02-5.28l-7.04,4.5l-10.17-1.57
						l-5.87,8.41l0.98-13.7l8.8-4.7l-5.67-3.52l-10.37,7.43l8.61-13.7l13.11,2.35l-1.57-5.87l-9-5.87l14.09,1.96l10.17,10.17
						c0,0,20.93,3.91,21.52,4.3c0.59,0.39,15.26-1.57,15.26-1.57l6.85-7.24l-1.76-14.67l8.61-15.85L460.93,482.61z"/>
					<polygon class="st2" points="510.89,512.61 460.93,482.61 485.65,525.52 					"/>
					<polygon class="st2" points="462.37,525.91 444.57,520.44 442.8,505.76 472.54,519.26 					"/>
					<polygon class="st2" points="437.72,527.68 455.13,547.83 430.09,543.33 					"/>
					<polygon class="st2" points="402.89,544.31 400.93,524.94 422.46,529.24 413.65,545.68 					"/>
					<polygon class="st2" points="399.57,552.52 394.67,561.13 384.3,554.48 					"/>
					<polygon class="st2" points="394.87,539.02 381.57,531.98 377.65,541.96 387.83,543.52 					"/>
					<polygon class="st2" points="374.13,522.2 375.89,528.46 365.52,535.89 					"/>
					<polygon class="st2" points="385.67,518.68 390.76,514.76 400.93,524.94 387.24,524.54 					"/>
				</g>
			</g>
		</g>
	</g>
</g>
</svg>
